<?xml version="1.0" encoding="iso-8859-1"?><svg version="1.1" id="Layer_1" xmlns="http://www.w3.org/2000/svg" xmlns:xlink="http://www.w3.org/1999/xlink" x="0px" y="0px" viewBox="0 0 24 24" enable-background="new 0 0 24 24" xml:space="preserve"><g><g><g><path fill="#303C42" d="M20.1236706,20.1196213l-0.709219-0.7088661c-0.1897678-0.1896725-0.1874809-0.4897251-0.0069847-0.6882343c1.7283115-1.9008026,2.5925236-4.3114109,2.5926342-6.7220516c0.0001125-2.4109516-0.8640976-4.8219366-2.5926361-6.7229824c-0.1804962-0.1985102-0.182785-0.4985652,0.0069847-0.6882401l0.7092247-0.7088685c0.2000389-0.199939,0.5335541-0.1995363,0.7248631,0.0087636C22.9493866,6.176579,23.9998646,9.0879879,24,11.9994373c0.0001354,2.9118156-1.0503368,5.8236713-3.1514168,8.1114159C20.6572647,20.31917,20.3237228,20.3195744,20.1236706,20.1196213z"/></g></g><g><g><path fill="#303C42" d="M3.8763278,20.1196232c-0.2000523,0.1999531-0.5335908,0.1995487-0.7249095-0.0087681C1.0505404,17.8233299,0.0000677,14.9118156,0,12.0002813c-0.0000677-2.9117222,1.0504048-5.8234639,3.1514173-8.1111355C3.3427365,3.6808293,3.676276,3.6804249,3.8763285,3.8803778l0.7092209,0.7088671c0.1897674,0.1896729,0.18748,0.4897251,0.0069852,0.6882339c-1.7283683,1.9008646-2.5925803,4.3115678-2.5926363,6.7222867c-0.000056,2.4108763,0.8641562,4.8217678,2.5926368,6.7227573c0.1804943,0.1985073,0.1827822,0.498558-0.0069852,0.6882305L3.8763278,20.1196232z"/></g></g><g><path fill="#303C42" d="M12,10.5h-0.5v1H12c0.2758789,0,0.5-0.2246094,0.5-0.5S12.2758789,10.5,12,10.5z"/><path fill="#303C42" d="M12,12.5h-0.5v1H12c0.2758789,0,0.5-0.2246094,0.5-0.5S12.2758789,12.5,12,12.5z"/><path fill="#303C42" d="M12.0058594,3c-4.9624023,0-9,4.0371094-9,9s4.0375977,9,9,9s9-4.0371094,9-9S16.9682617,3,12.0058594,3z M9.5,14c0,0.2763672-0.2236328,0.5-0.5,0.5S8.5,14.2763672,8.5,14v-0.5h-1V14c0,0.2763672-0.2236328,0.5-0.5,0.5S6.5,14.2763672,6.5,14v-3c0-0.8271484,0.6728516-1.5,1.5-1.5s1.5,0.6728516,1.5,1.5V14z M13.5,13c0,0.8271484-0.6728516,1.5-1.5,1.5h-1c-0.2763672,0-0.5-0.2236328-0.5-0.5v-4c0-0.2763672,0.2236328-0.5,0.5-0.5h1c0.8271484,0,1.5,0.6728516,1.5,1.5c0,0.3837891-0.1450195,0.734375-0.3828125,1C13.3549805,12.265625,13.5,12.6162109,13.5,13z M16,11.5c0.8271484,0,1.5,0.6728516,1.5,1.5s-0.6728516,1.5-1.5,1.5h-1c-0.2763672,0-0.5-0.2236328-0.5-0.5s0.2236328-0.5,0.5-0.5h1c0.2758789,0,0.5-0.2246094,0.5-0.5s-0.2241211-0.5-0.5-0.5c-0.8271484,0-1.5-0.6728516-1.5-1.5s0.6728516-1.5,1.5-1.5h1c0.2763672,0,0.5,0.2236328,0.5,0.5s-0.2236328,0.5-0.5,0.5h-1c-0.2758789,0-0.5,0.2246094-0.5,0.5S15.7241211,11.5,16,11.5z"/><path fill="#303C42" d="M8,10.5c-0.2758789,0-0.5,0.2246094-0.5,0.5v1.5h1V11C8.5,10.7246094,8.2758789,10.5,8,10.5z"/></g></g><g></g><g></g><g></g><g></g><g></g><g></g><g></g><g></g><g></g><g></g><g></g><g></g><g></g><g></g><g></g></svg>