<?xml version="1.0" encoding="iso-8859-1"?><svg version="1.1" id="Layer_1" xmlns="http://www.w3.org/2000/svg" xmlns:xlink="http://www.w3.org/1999/xlink" x="0px" y="0px" viewBox="0 0 24 24" enable-background="new 0 0 24 24" xml:space="preserve"><path fill="#303C42" d="M22,5V4c0-0.5512695-0.4482422-1-1-1h-3c-0.5517578,0-1,0.4487305-1,1v1h-0.2929688l-0.4140625-0.4140625C15.9208984,4.2133789,15.4052734,4,14.8789063,4H9.1210938C8.5947266,4,8.0791016,4.2133789,7.7070313,4.5859375L7.2929688,5H7V4c0-0.5512695-0.4482422-1-1-1H3C2.4482422,3,2,3.4487305,2,4v1C0.8974609,5,0,5.8969727,0,7v12c0,1.1030273,0.8974609,2,2,2h20c1.1025391,0,2-0.8969727,2-2V7C24,5.8969727,23.1025391,5,22,5z M5.5,10h-2C3.2236328,10,3,9.7763672,3,9.5S3.2236328,9,3.5,9h2C5.7763672,9,6,9.2236328,6,9.5S5.7763672,10,5.5,10z M20.5,10H20v0.5c0,0.2763672-0.2236328,0.5-0.5,0.5S19,10.7763672,19,10.5V10h-0.5C18.2236328,10,18,9.7763672,18,9.5S18.2236328,9,18.5,9H19V8.5C19,8.2236328,19.2236328,8,19.5,8S20,8.2236328,20,8.5V9h0.5C20.7763672,9,21,9.2236328,21,9.5S20.7763672,10,20.5,10z"/><g></g><g></g><g></g><g></g><g></g><g></g><g></g><g></g><g></g><g></g><g></g><g></g><g></g><g></g><g></g></svg>