<?xml version="1.0" encoding="iso-8859-1"?><svg version="1.1" id="Layer_1" xmlns="http://www.w3.org/2000/svg" xmlns:xlink="http://www.w3.org/1999/xlink" x="0px" y="0px" viewBox="0 0 24 24" enable-background="new 0 0 24 24" xml:space="preserve"><g><path fill="#303C42" d="M11,1c-0.2763672,0-0.5,0.2236328-0.5,0.5v3.6401367c0,0.9677734,0.6640625,1.7905273,1.5791016,1.956543c2.4418945,0.4433594,4.3808594,2.3823242,4.8242188,4.8242188C17.0693359,12.8359375,17.8920898,13.5,18.8598633,13.5H22.5c0.2763672,0,0.5-0.2236328,0.5-0.5C23,6.3833008,17.6166992,1,11,1z M19.3881836,11.5297852c-0.0390625,0.0087891-0.0776367,0.0131836-0.1157227,0.0131836c-0.2265625,0-0.4316406-0.1547852-0.4863281-0.3847656c-0.6904297-2.9204102-3.0234375-5.253418-5.9443359-5.9448242c-0.2685547-0.0634766-0.4350586-0.3325195-0.3710938-0.6015625c0.0634766-0.269043,0.3276367-0.4370117,0.6015625-0.3710938c3.2856445,0.7773438,5.9106445,3.4018555,6.6875,6.6870117C19.8232422,11.1967773,19.6567383,11.4658203,19.3881836,11.5297852z"/><path fill="#303C42" d="M20.2851563,14.5h-1.425293c-1.4516602,0-2.6884766-1.0097656-2.9399414-2.4013672c-0.3701172-2.0341797-1.9853516-3.6489258-4.0200195-4.0185547C10.5092773,7.8286133,9.5,6.5917969,9.5,5.1401367v-1.425293c0-0.1508789-0.0683594-0.2939453-0.1855469-0.3886719C9.1962891,3.2304688,9.0424805,3.1928711,8.8950195,3.2260742C4.3203125,4.2070313,1,8.3173828,1,13c0,5.5141602,4.4858398,10,10,10c4.6826172,0,8.7929688-3.3203125,9.7739258-7.8950195c0.0317383-0.1479492-0.0048828-0.3017578-0.1000977-0.4194336C20.5791016,14.5683594,20.4360352,14.5,20.2851563,14.5z M6.5,7C7.3271484,7,8,7.6728516,8,8.5S7.3271484,10,6.5,10S5,9.3271484,5,8.5S5.6728516,7,6.5,7z M6.5,19C5.6728516,19,5,18.3271484,5,17.5S5.6728516,16,6.5,16S8,16.6728516,8,17.5S7.3271484,19,6.5,19z M11,16c-1.6542969,0-3-1.3457031-3-3s1.3457031-3,3-3s3,1.3457031,3,3S12.6542969,16,11,16z M15.5,19c-0.8271484,0-1.5-0.6728516-1.5-1.5s0.6728516-1.5,1.5-1.5s1.5,0.6728516,1.5,1.5S16.3271484,19,15.5,19z"/></g><g></g><g></g><g></g><g></g><g></g><g></g><g></g><g></g><g></g><g></g><g></g><g></g><g></g><g></g><g></g></svg>