<?xml version="1.0" encoding="iso-8859-1"?><svg version="1.1" id="Layer_1" xmlns="http://www.w3.org/2000/svg" xmlns:xlink="http://www.w3.org/1999/xlink" x="0px" y="0px" viewBox="0 0 30 30" enable-background="new 0 0 30 30" xml:space="preserve"><path fill="#1EAEDB" d="M15,0C6.7290039,0,0,6.7290039,0,15s6.7290039,15,15,15s15-6.7290039,15-15S23.2709961,0,15,0z M23.8534546,10.5605469L13.2070313,21.2070313C13.0117188,21.4023438,12.7558594,21.5,12.5,21.5s-0.5117188-0.0976563-0.7070313-0.2929688l-5.6464233-5.6464844c-0.1953125-0.1952515-0.1953125-0.5118408,0-0.7070923l0.7069092-0.7069702c0.1953125-0.1952515,0.5118408-0.1952515,0.7071533,0L12.5,19.0859375l9.9393921-9.9394531c0.1953125-0.1952515,0.5118408-0.1952515,0.7071533,0l0.7069092,0.7069702C24.0487671,10.0487061,24.0487671,10.3652954,23.8534546,10.5605469z"/><g></g><g></g><g></g><g></g><g></g><g></g><g></g><g></g><g></g><g></g><g></g><g></g><g></g><g></g><g></g></svg>