<?xml version="1.0" encoding="iso-8859-1"?><svg version="1.1" id="Layer_1" xmlns="http://www.w3.org/2000/svg" xmlns:xlink="http://www.w3.org/1999/xlink" x="0px" y="0px" viewBox="0 0 24 24" enable-background="new 0 0 24 24" xml:space="preserve"><path fill="#303C42" d="M22.5,11h-2.1245117l0.5268555-0.7026367c0.0664063-0.0878906,0.1010742-0.1953125,0.1000977-0.3056641l-0.0112305-0.9985352c-0.0024414-0.2094727-0.1352539-0.3955078-0.3330078-0.465332c-0.1958008-0.0703125-0.4179688-0.0097656-0.5517578,0.1518555L18.180603,11h-3.7663574l3-3H19.5c0.1342773,0,0.2631836-0.0541992,0.3574219-0.1503906S20.0029297,7.6235352,20,7.4892578L19.9892578,6.996582c-0.0058594-0.2714844-0.2275391-0.4887695-0.4985352-0.4892578l-0.5823975-0.0014038l0.9452515-0.9452515c0.1952515-0.1953125,0.1952515-0.5118408,0-0.7071533l-0.7071533-0.7070923c-0.1952515-0.1952515-0.5118408-0.1952515-0.7070923,0L17.49646,5.0892944L17.4956055,4.512207c-0.0004883-0.2709961-0.2163086-0.4921875-0.4873047-0.4995117L16.5126953,4c-0.1347656-0.0073242-0.2651367,0.0473633-0.3618164,0.1420898C16.0546875,4.2358398,16,4.3652344,16,4.5v2.0857544l-3,3V5.8214722l2.3227539-1.9225464c0.1616211-0.1337891,0.222168-0.3540039,0.152832-0.5512695c-0.0698242-0.1977539-0.2553711-0.3310547-0.4648438-0.3339844L14.0068359,3c-0.1298828-0.0200195-0.2182617,0.0336914-0.3066406,0.1000977L13,3.6251221V1.5C13,1.2238159,12.776123,1,12.5,1h-1C11.223877,1,11,1.2238159,11,1.5v2.1251221l-0.7001953-0.5250244C10.2119141,3.0341797,10.1005859,3.0078125,9.9941406,3L8.9956055,3.0117188c-0.2094727,0.0024414-0.3955078,0.1352539-0.465332,0.3330078C8.4599609,3.5424805,8.5209961,3.7626953,8.6821289,3.8964844L11,5.8199463v3.7658081l-3-3V4.5C8,4.2236328,7.7763672,4,7.5,4H7C6.7236328,4,6.5,4.2236328,6.5,4.5v0.5857544L5.5606689,4.1464233c-0.1952515-0.1952515-0.5118408-0.1952515-0.7070923,0L4.1464233,4.8535156c-0.1952515,0.1953125-0.1952515,0.5118408,0,0.7071533L5.0857544,6.5H4.5C4.2236328,6.5,4,6.7236328,4,7v0.5C4,7.7763672,4.2236328,8,4.5,8h2.0857544l3,3H5.8217773L3.9013672,8.6801758c-0.1342773-0.1616211-0.3549805-0.222168-0.5512695-0.152832C3.1523438,8.597168,3.019043,8.7827148,3.0161133,8.9921875l-0.0136719,1.003418c-0.0014648,0.1103516,0.0336914,0.2182617,0.1000977,0.3066406L3.6257324,11H1.5C1.223877,11,1,11.2238159,1,11.5v1C1,12.776123,1.223877,13,1.5,13h2.1293945l-0.5268555,0.7026367c-0.0664063,0.0878906-0.1015625,0.1953125-0.1000977,0.3056641l0.0117188,0.9985352c0.0024414,0.2094727,0.1352539,0.3955078,0.3330078,0.465332c0.0546875,0.0195313,0.1108398,0.0288086,0.1669922,0.0288086c0.1459961,0,0.2880859-0.0639648,0.3847656-0.1806641L5.8244019,13h3.7613525l-3,3H4.5C4.2236328,16,4,16.2236328,4,16.5V17c0,0.2758789,0.2236328,0.5,0.5,0.5l0.5854492,0.0003052l-0.9390259,0.9390259c-0.1952515,0.1952515-0.1952515,0.5118408,0,0.7070923l0.7071533,0.7070923c0.1952515,0.1953125,0.5118408,0.1953125,0.7070923,0l0.9491577-0.9491577l0.0033569,0.5917358c0.0014648,0.2719727,0.2207031,0.4931641,0.4931641,0.4970703L7.4931641,20C7.4951172,20,7.4975586,20,7.5,20c0.1313477,0,0.2573242-0.0517578,0.3510742-0.144043C7.9462891,19.762207,8,19.6337891,8,19.5v-2.0858154l3-3v3.7687988l-2.3173828,1.9180908c-0.1616211,0.1337891-0.222168,0.3540039-0.152832,0.5512695c0.0698242,0.1977539,0.2553711,0.3310547,0.4648438,0.3339844L9.9985352,21c0.1044922-0.0107422,0.2182617-0.0336914,0.3066406-0.1000977L11,20.3789063V22.5c0,0.276123,0.223877,0.5,0.5,0.5h1c0.276123,0,0.5-0.223877,0.5-0.5v-2.1291504l0.7055664,0.5290527C13.7919922,20.9648438,13.8974609,21,14.0053711,21c0.0019531,0,0.0039063,0,0.0058594,0l0.9985352-0.0117188c0.2094727-0.0024414,0.3955078-0.1352539,0.465332-0.3330078c0.0703125-0.1977539,0.0092773-0.4179688-0.1518555-0.5517578L13,18.1755981v-3.7614136l3,3V19.5c0,0.2763672,0.2236328,0.5,0.5,0.5H17c0.2763672,0,0.5-0.2236328,0.5-0.5v-0.5858154l0.9393311,0.9393311c0.1952515,0.1953125,0.5118408,0.1953125,0.7070923,0l0.7071533-0.7070923c0.1952515-0.1952515,0.1952515-0.5118408,0-0.7070923L18.9142456,17.5H19.5c0.2763672,0,0.5-0.2236328,0.5-0.5v-0.5c0-0.2763672-0.2236328-0.5-0.5-0.5h-2.0857544l-3-3h3.7689819l1.9207764,2.3198242c0.097168,0.1171875,0.2392578,0.1811523,0.3852539,0.1811523c0.0556641,0,0.1118164-0.0092773,0.1665039-0.0283203c0.1977539-0.0698242,0.3305664-0.2553711,0.3334961-0.465332l0.0131836-1.003418c0.0014648-0.1103516-0.0336914-0.2177734-0.1000977-0.3061523L20.3791504,13H22.5c0.276123,0,0.5-0.223877,0.5-0.5v-1C23,11.2238159,22.776123,11,22.5,11z"/><g></g><g></g><g></g><g></g><g></g><g></g><g></g><g></g><g></g><g></g><g></g><g></g><g></g><g></g><g></g></svg>