<?xml version="1.0" encoding="iso-8859-1"?><svg version="1.1" id="Layer_1" xmlns="http://www.w3.org/2000/svg" xmlns:xlink="http://www.w3.org/1999/xlink" x="0px" y="0px" viewBox="0 0 24 24" enable-background="new 0 0 24 24" xml:space="preserve"><g><path fill="#303C42" d="M9.5,7c0.1279297,0,0.2558594-0.0488281,0.3535156-0.1464844l1-1c0.1953125-0.1953125,0.1953125-0.5117188,0-0.7070313s-0.5117188-0.1953125-0.7070313,0l-1,1c-0.1953125,0.1953125-0.1953125,0.5117188,0,0.7070313C9.2441406,6.9511719,9.3720703,7,9.5,7z"/><path fill="#303C42" d="M12.1464844,5.1464844l-3,3c-0.1953125,0.1953125-0.1953125,0.5117188,0,0.7070313C9.2441406,8.9511719,9.3720703,9,9.5,9s0.2558594-0.0488281,0.3535156-0.1464844l3-3c0.1953125-0.1953125,0.1953125-0.5117188,0-0.7070313S12.3417969,4.9511719,12.1464844,5.1464844z"/><path fill="#303C42" d="M23.670845,2.7236328C23.1395092,1.6606445,22.070488,1,20.8813305,1h-9.6890688C9.3369808,1,7.5661864,1.7949219,6.3335648,3.1816406l-4.6950965,5.28125C0.5792149,9.6538086-0.0038874,11.1875,0.0000195,12.8457031l0.8365613,6.453125c0.1196483,0.9248047,0.5489171,1.7978516,1.2086918,2.4570313C2.8476486,22.5581055,3.9142277,23,5.0491772,23h16.9504986C23.1028824,23,24,22.1030273,24,21V4.1181641C24,3.6367188,23.8862114,3.1542969,23.670845,2.7236328z M3.8837891,10.4555664L8.578125,5.1748047C9.2421875,4.4282227,10.1958008,4,11.1943359,4h9.6875C20.9282227,4,20.9667969,4.0234375,21,4.1181641V12H3.0400391C3.1318359,11.4707031,3.3881836,11.0141602,3.8837891,10.4555664z M21.5,19h-18C3.2236328,19,3,18.7763672,3,18.5S3.2236328,18,3.5,18h18c0.2763672,0,0.5,0.2236328,0.5,0.5S21.7763672,19,21.5,19z M21.5,16h-3c-0.2763672,0-0.5-0.2236328-0.5-0.5s0.2236328-0.5,0.5-0.5h3c0.2763672,0,0.5,0.2236328,0.5,0.5S21.7763672,16,21.5,16z"/></g><g></g><g></g><g></g><g></g><g></g><g></g><g></g><g></g><g></g><g></g><g></g><g></g><g></g><g></g><g></g></svg>