<?xml version="1.0" encoding="iso-8859-1"?><svg version="1.1" id="Layer_1" xmlns="http://www.w3.org/2000/svg" xmlns:xlink="http://www.w3.org/1999/xlink" x="0px" y="0px" viewBox="0 0 24 24" enable-background="new 0 0 24 24" xml:space="preserve"><path fill="#303C42" d="M15.5,3.0710449V0.5C15.5,0.2236328,15.2763672,0,15,0h-2c-0.2763672,0-0.5,0.2236328-0.5,0.5V3h-1V0.5C11.5,0.2236328,11.2763672,0,11,0H9C8.7236328,0,8.5,0.2236328,8.5,0.5v2.5710449C7.6400146,3.2946167,7,4.0706787,7,5v11c0,1.1030273,0.8974609,2,2,2h1.5v0.7504883C10.5,18.8881836,10.3886719,19,10.2509766,19c-1.7919922,0-3.25,1.4584961-3.25,3.2509766L7,23.4995117c0,0.1328125,0.0527344,0.2602539,0.1464844,0.3540039S7.3671875,24,7.5,24h2c0.2763672,0,0.5-0.2236328,0.5-0.4995117l0.0009766-1.25c0-0.1381836,0.1123047-0.2504883,0.25-0.2504883C12.0429688,22,13.5,20.5424805,13.5,18.7504883V18H15c1.1025391,0,2-0.8969727,2-2V5C17,4.0706787,16.3599854,3.2946167,15.5,3.0710449z M10,15.5c0,0.2763672-0.2236328,0.5-0.5,0.5S9,15.7763672,9,15.5v-4C9,11.2236328,9.2236328,11,9.5,11s0.5,0.2236328,0.5,0.5V15.5z"/><g></g><g></g><g></g><g></g><g></g><g></g><g></g><g></g><g></g><g></g><g></g><g></g><g></g><g></g><g></g></svg>