<?xml version="1.0" encoding="iso-8859-1"?><svg version="1.1" id="Layer_1" xmlns="http://www.w3.org/2000/svg" xmlns:xlink="http://www.w3.org/1999/xlink" x="0px" y="0px" viewBox="0 0 24 24" enable-background="new 0 0 24 24" xml:space="preserve"> <g> <path fill="#1EAEDB" d="M12,18.5c0-2.8520508,1.9091797-5.4125977,4.6425781-6.2270508C16.8544922,12.2099609,17,12.0151367,17,11.7939453V9c0-1.1030273-0.8969727-2-2-2H2C0.8969727,7,0,7.8969727,0,9v13c0,1.1030273,0.8969727,2,2,2h11.6054688c0.203125,0,0.3862305-0.1230469,0.4628906-0.3110352s0.0322266-0.4042969-0.1132813-0.5463867C12.6943359,21.9082031,12,20.2597656,12,18.5z M3.5,12h10c0.2763672,0,0.5,0.2236328,0.5,0.5S13.7763672,13,13.5,13h-10C3.2236328,13,3,12.7763672,3,12.5S3.2236328,12,3.5,12z M10.5,19h-7C3.2236328,19,3,18.7763672,3,18.5S3.2236328,18,3.5,18h7c0.2763672,0,0.5,0.2236328,0.5,0.5S10.7763672,19,10.5,19z M11,16H3.5C3.2236328,16,3,15.7763672,3,15.5S3.2236328,15,3.5,15H11c0.2763672,0,0.5,0.2236328,0.5,0.5S11.2763672,16,11,16z"/> <path fill="#1EAEDB" d="M18.5,13c-3.0327148,0-5.5,2.4672852-5.5,5.5s2.4672852,5.5,5.5,5.5s5.5-2.4672852,5.5-5.5S21.5327148,13,18.5,13z M15.2641602,18.940918C15.1015625,18.8540039,15,18.6845703,15,18.5c0-1.9296875,1.5703125-3.5,3.5-3.5c1.1645508,0,2.2495117,0.5766602,2.9018555,1.5429688c0.1547852,0.2285156,0.0947266,0.5395508-0.1342773,0.6938477c-0.2280273,0.1552734-0.5395508,0.0942383-0.6938477-0.1342773C20.1069336,16.4121094,19.3320313,16,18.5,16c-0.6367188,0-1.21875,0.2392578-1.6606445,0.6328125c0.0048828,0.0043945,0.0097656,0.0087891,0.0141602,0.0136719l0.5,0.5c0.105957,0.105957,0.1586914,0.2539063,0.144043,0.402832s-0.0957031,0.2836914-0.2202148,0.3666992l-1.5,1C15.6938477,18.9716797,15.597168,19,15.5,19C15.4189453,19,15.3378906,18.9804688,15.2641602,18.940918z M18.5,22c-1.1645508,0-2.2495117-0.5766602-2.9018555-1.5429688c-0.1547852-0.2285156-0.0947266-0.5395508,0.1342773-0.6938477c0.2280273-0.1547852,0.5395508-0.0947266,0.6938477,0.1342773C16.8930664,20.5878906,17.6679688,21,18.5,21c0.6367188,0,1.21875-0.2392578,1.6606445-0.6328125c-0.0048828-0.0043945-0.0097656-0.0087891-0.0141602-0.0136719l-0.5-0.5c-0.105957-0.105957-0.1586914-0.2539063-0.144043-0.402832s0.0957031-0.2836914,0.2202148-0.3666992l1.5-1c0.152832-0.1020508,0.3515625-0.1118164,0.5131836-0.0249023C21.8984375,18.1459961,22,18.3154297,22,18.5C22,20.4296875,20.4296875,22,18.5,22z"/> <path fill="#1EAEDB" d="M22,0H9C7.8954306,0,7,0.8954305,7,2v3.5C7,5.7761426,7.2238574,6,7.5,6H15c0.8095808,0,1.5383854,0.3282847,2.0774841,0.8523259C17.1714287,6.943646,17.2937489,7,17.4247646,7l3.0491695-0.0000005c0.2490273,0,0.479557,0.1704717,0.5192871,0.4163089C21.0438786,7.7297664,20.8038006,8,20.5,8h-2.0612068c-0.3029709,0-0.5215054,0.2742233-0.4734325,0.5733557C17.9876957,8.712328,18,8.8545418,18,9v0.5174999C18,9.7839775,18.2160225,10,18.4825001,10l1.9914341-0.000001c0.2490273,0,0.479557,0.1704721,0.5192871,0.4163094C21.0438786,10.7297659,20.8038006,11,20.5,11h-2.0174999C18.2160225,11,18,11.2160225,18,11.4825001V11.5c0,0.2767096,0.2266998,0.4998627,0.5034103,0.5000029c1.7584839,0.0008945,3.4055901,0.6951475,4.6391678,1.9550753c0.0961914,0.0981445,0.2255859,0.1503906,0.3574219,0.1503906c0.0634766,0,0.1279297-0.012207,0.1889648-0.0371094C23.8769531,13.9916992,24,13.8085938,24,13.6054688V2C24,0.8954305,23.1045704,0,22,0z M20.5,5h-10C10.2236328,5,10,4.7763672,10,4.5S10.2236328,4,10.5,4h10C20.7763672,4,21,4.2236328,21,4.5S20.7763672,5,20.5,5z"/> </g> <g> </g> <g> </g> <g> </g> <g> </g> <g> </g> <g> </g> <g> </g> <g> </g> <g> </g> <g> </g> <g> </g> <g> </g> <g> </g> <g> </g> <g> </g></svg>