<?xml version="1.0" encoding="iso-8859-1"?><svg version="1.1" id="Layer_1" xmlns="http://www.w3.org/2000/svg" xmlns:xlink="http://www.w3.org/1999/xlink" x="0px" y="0px" viewBox="0 0 24 24" enable-background="new 0 0 24 24" xml:space="preserve"><g><path fill="#303C42" d="M23.8417969,14.9443359l-0.5429688-1.6279297c-0.2363377-0.7094727-0.6416016-1.3652344-1.171875-1.8959961C21.2119141,10.5043945,19.9941406,10,18.6982422,10h-4.7757568l-0.2359619-1.4179688c-0.0244141-0.1474609,0.015625-0.2910156,0.1113281-0.4052734C13.8945313,8.0629883,14.0302734,8,14.1796875,8h1.3935547c0.7626953,0,1.4472656-0.4238281,1.7880859-1.1054688l0.5859375-1.1708984c0.0771484-0.1547852,0.0693359-0.3388672-0.0214844-0.4863281C17.8339844,5.0898438,17.6728516,5,17.5,5h-11C6.3271484,5,6.1660156,5.0898438,6.0751953,5.2373047C5.9833984,5.3842773,5.9755859,5.5683594,6.0527344,5.7236328l0.5849609,1.1713867C6.9794922,7.5766602,7.6650391,8,8.4267578,8h1.2265625c0.2441406,0,0.4443359,0.0766602,0.5615234,0.2158203c0.0869141,0.1025391,0.1210938,0.2290039,0.0986328,0.3662109L10.0774536,10H5.3017578c-1.2958984,0-2.5136719,0.5043945-3.4287109,1.4204102c-0.5302734,0.5307617-0.9355554,1.1865234-1.171875,1.8955078l-0.5429688,1.628418C0.0537109,15.2592773,0,15.5874023,0,15.9189453C0,17.6176758,1.3818359,19,3.0810547,19h17.8378906C22.6181641,19,24,17.6176758,24,15.9189453C24,15.5874023,23.9462891,15.2592773,23.8417969,14.9443359z M5.3017578,12h13.3964844c0.7607422,0,1.4765625,0.296875,2.0146484,0.8344727c0.3125,0.3129883,0.5498047,0.6977539,0.6875,1.1132813l0.5439453,1.628418C21.9814453,15.6875,22,15.8032227,22,15.9189453C22,16.5151367,21.5146484,17,20.9189453,17H3.0810547C2.4853516,17,2,16.5151367,2,15.9189453c0-0.1157227,0.0185547-0.230957,0.0556641-0.3413086l0.5429688-1.6293945c0.1386719-0.4160156,0.3769531-0.8012695,0.6884766-1.1137695C3.8261719,12.2963867,4.5410156,12,5.3017578,12z"/><path fill="#303C42" d="M4,15.5c0.1279297,0,0.2558594-0.0488281,0.3535156-0.1464844l2-2c0.1953125-0.1953125,0.1953125-0.5117188,0-0.7070313s-0.5117188-0.1953125-0.7070313,0l-2,2c-0.1953125,0.1953125-0.1953125,0.5117188,0,0.7070313C3.7441406,15.4511719,3.8720703,15.5,4,15.5z"/><path fill="#303C42" d="M5.6464844,16.3535156C5.7441406,16.4511719,5.8720703,16.5,6,16.5s0.2558594-0.0488281,0.3535156-0.1464844l1-1c0.1953125-0.1953125,0.1953125-0.5117188,0-0.7070313s-0.5117188-0.1953125-0.7070313,0l-1,1C5.4511719,15.8417969,5.4511719,16.1582031,5.6464844,16.3535156z"/></g><g></g><g></g><g></g><g></g><g></g><g></g><g></g><g></g><g></g><g></g><g></g><g></g><g></g><g></g><g></g></svg>