<?xml version="1.0" encoding="iso-8859-1"?><svg version="1.1" id="Layer_1" xmlns="http://www.w3.org/2000/svg" xmlns:xlink="http://www.w3.org/1999/xlink" x="0px" y="0px" viewBox="0 0 24 24" enable-background="new 0 0 24 24" xml:space="preserve"><path fill="#303C42" d="M18.5,7h1C20.3271484,7,21,6.3271484,21,5.5v-4C21,0.6728516,20.3271484,0,19.5,0h-1C17.6728516,0,17,0.6728516,17,1.5v1.0432739l-3.6411133,0.3309326C13.1208496,2.3597412,12.6031494,2,12,2s-1.1208496,0.3597412-1.3588867,0.8742065L7,2.5432739V1.5C7,0.6728516,6.3271484,0,5.5,0h-1C3.6728516,0,3,0.6728516,3,1.5v4C3,6.3271484,3.6728516,7,4.5,7h1C6.3271484,7,7,6.3271484,7,5.5V4.4567261l3.6411133-0.3309326c0.0870972,0.1882324,0.2125244,0.3531494,0.3656006,0.489563l0.3643799,5.4106445C11.1589355,10.0838623,11,10.2693481,11,10.5v3c0,0.2221069,0.1469116,0.4038696,0.3470459,0.4691772l-0.3395996,4.414856C10.6986694,18.6589966,10.5,19.0549316,10.5,19.5v0.3615112L7,19.5432739V18.5C7,17.6728516,6.3271484,17,5.5,17h-1C3.6728516,17,3,17.6728516,3,18.5v4C3,23.3271484,3.6728516,24,4.5,24h1C6.3271484,24,7,23.3271484,7,22.5v-1.0432739l3.5-0.3182373V21.5c0,0.8271484,0.6728516,1.5,1.5,1.5s1.5-0.6728516,1.5-1.5v-0.3615112l3.5,0.3182373V22.5c0,0.8271484,0.6728516,1.5,1.5,1.5h1c0.8271484,0,1.5-0.6728516,1.5-1.5v-4c0-0.8271484-0.6728516-1.5-1.5-1.5h-1c-0.8271484,0-1.5,0.6728516-1.5,1.5v1.0432739l-3.5,0.3182373V19.5c0-0.4451904-0.1987305-0.8411865-0.5076904-1.1161499l-0.3428345-4.4140015C12.8513794,13.9055786,13,13.7233276,13,13.5v-3c0-0.229248-0.1570435-0.4141235-0.3672485-0.4732666l0.3607178-5.411499c0.1529541-0.1364136,0.2783203-0.3012695,0.3654175-0.4894409L17,4.4567261V5.5C17,6.3271484,17.6728516,7,18.5,7z"/><g></g><g></g><g></g><g></g><g></g><g></g><g></g><g></g><g></g><g></g><g></g><g></g><g></g><g></g><g></g></svg>