<?xml version="1.0" encoding="iso-8859-1"?><svg version="1.1" id="Layer_1" xmlns="http://www.w3.org/2000/svg" xmlns:xlink="http://www.w3.org/1999/xlink" x="0px" y="0px" viewBox="0 0 24 24" enable-background="new 0 0 24 24" xml:space="preserve"><path fill="#303C42" d="M20.4140625,9.7074966l-5.1210938-5.1209145c-0.3720703-0.3725457-0.8876953-0.585917-1.4140625-0.585917H12V2.5007174C12,1.6735981,11.3271484,1.00077,10.5,1.00077L6.5,1C5.6728516,1,5,1.672828,5,2.4999475v1.4999475c-1.1025391,0-2,0.8969412-2,1.9999299V20.9993c0,1.1029892,0.8974609,1.9999294,2,1.9999294L19,23c1.1025391,0,2-0.8969421,2-1.9999294v-9.878561C21,10.5951605,20.7861328,10.0795536,20.4140625,9.7074966z M10.5,19.0003853c-1.3789063,0-2.5-1.121582-2.5-2.5c0-1.2558594,1.7958984-3.0214844,2.15625-3.362793c0.1933594-0.1826172,0.4941406-0.1826172,0.6875,0C11.2041016,13.4789009,13,15.2445259,13,16.5003853C13,17.8788033,11.8789063,19.0003853,10.5,19.0003853z M18.0605469,13.0609322C17.7773438,13.3441353,17.4003906,13.5003853,17,13.5003853s-0.7773438-0.15625-1.0605469-0.4394531l-4-4c-0.5849609-0.5849609-0.5849609-1.5361333,0-2.1210942c0.5839844-0.5849609,1.5371094-0.5849609,2.1210938,0l4,4.0000005C18.6455078,11.5247993,18.6455078,12.4759712,18.0605469,13.0609322z"/><g></g><g></g><g></g><g></g><g></g><g></g><g></g><g></g><g></g><g></g><g></g><g></g><g></g><g></g><g></g></svg>