<?xml version="1.0" encoding="iso-8859-1"?><svg version="1.1" xmlns="http://www.w3.org/2000/svg" xmlns:xlink="http://www.w3.org/1999/xlink" x="0px" y="0px" viewBox="0 0 24 24" enable-background="new 0 0 24 24" xml:space="preserve"><g id="Layer_1"></g><g id="Gears"><g><circle fill="#1EAEDB" cx="4.5" cy="4.5" r="0.5"/><path fill="#1EAEDB" d="M24,3.5C24,1.5703125,22.4296875,0,20.5,0h-16C2.0185547,0,0,2.0185547,0,4.5c0,0.2703247,0.0917358,0.9016724,0.0947266,0.9161377c0.9389038,4.9862061,8.6066895,14.4721069,8.9541016,14.899292c0.0029907,0.0037231,0.0076904,0.0048218,0.0108032,0.0084229C10.3690186,22.5206909,12.7619019,24,15.5,24c4.1218262,0,7.4754639-3.3421631,7.4979248-7.4588013c0.0001221-0.0014648,0.0009766-0.0026245,0.0010986-0.0040894l0.9140625-12.2783203c0.0001831-0.0007935-0.0006714-0.0015869-0.0004883-0.0023804C23.9667969,4.012146,24,3.7603149,24,3.5z M20.5,2.5c0.5517578,0,1,0.4482422,1,1s-0.4482422,1-1,1s-1-0.4482422-1-1S19.9482422,2.5,20.5,2.5z M4.5,3C5.3271484,3,6,3.6728516,6,4.5S5.3271484,6,4.5,6S3,5.3271484,3,4.5S3.6728516,3,4.5,3z M11.5,17c-0.276123,0-0.5-0.223877-0.5-0.5c0-0.2761841,0.223877-0.5,0.5-0.5s0.5,0.2238159,0.5,0.5C12,16.776123,11.776123,17,11.5,17z M15.5,21c-0.276123,0-0.5-0.223877-0.5-0.5c0-0.2761841,0.223877-0.5,0.5-0.5s0.5,0.2238159,0.5,0.5C16,20.776123,15.776123,21,15.5,21z M15.5,19c-1.3789063,0-2.5-1.1210938-2.5-2.5s1.1210938-2.5,2.5-2.5s2.5,1.1210938,2.5,2.5S16.8789063,19,15.5,19z M15,12.5c0-0.2761841,0.223877-0.5,0.5-0.5s0.5,0.2238159,0.5,0.5c0,0.276123-0.223877,0.5-0.5,0.5S15,12.776123,15,12.5z M19.5,17c-0.276123,0-0.5-0.223877-0.5-0.5c0-0.2761841,0.223877-0.5,0.5-0.5s0.5,0.2238159,0.5,0.5C20,16.776123,19.776123,17,19.5,17z M22.2425537,13.2368164C21.026062,10.7337036,18.4651489,9,15.5,9C11.3642578,9,8,12.3642578,8,16.5c0,0.3067627,0.0241089,0.6075439,0.0600586,0.9047241C6.3272705,15.0958252,3.730835,11.4373169,2.21698,8.3561401C2.8887939,8.7554932,3.6633301,9,4.5,9C6.9814453,9,9,6.9814453,9,4.5C9,3.0791016,8.3251343,1.8253174,7.2935181,1h10.7647705C17.4072266,1.6359863,17,2.5202637,17,3.5C17,5.4296875,18.5703125,7,20.5,7c0.8719482,0,1.6605835-0.3320923,2.2740479-0.8616333L22.2425537,13.2368164z"/></g></g></svg>