<?xml version="1.0" encoding="iso-8859-1"?><svg version="1.1" id="Layer_1" xmlns="http://www.w3.org/2000/svg" xmlns:xlink="http://www.w3.org/1999/xlink" x="0px" y="0px" viewBox="0 0 24 24" enable-background="new 0 0 24 24" xml:space="preserve"><path fill="#303C42" d="M19,10h-5.5V7.7025146C14.9633179,7.1074829,16,5.6749268,16,4c0-2.2060547-1.7944336-4-4-4S8,1.7939453,8,4c0,1.6749268,1.0366821,3.1074829,2.5,3.7025146V15.5c0,0.8271484,0.6728516,1.5,1.5,1.5s1.5-0.6728516,1.5-1.5V15h2c0.2763672,0,0.5-0.2236328,0.5-0.5V13c0-0.5517578,0.4487305-1,1-1s1,0.4482422,1,1v8c0,0.5517578-0.4487305,1-1,1s-1-0.4482422-1-1v-2.5c0-0.2763672-0.2236328-0.5-0.5-0.5h-2c-0.2763672,0-0.5,0.2236328-0.5,0.5V21c0,0.5517578-0.4487305,1-1,1s-1-0.4482422-1-1v-2.5c0-0.2763672-0.2236328-0.5-0.5-0.5h-2C8.2236328,18,8,18.2236328,8,18.5V21c0,0.5517578-0.4487305,1-1,1s-1-0.4482422-1-1v-8c0-0.5517578,0.4487305-1,1-1s1,0.4482422,1,1v1.5C8,14.7763672,8.2236328,15,8.5,15H9c0.2763672,0,0.5-0.2236328,0.5-0.5v-4C9.5,10.2236328,9.2763672,10,9,10H5c-1.1030273,0-2,0.8974609-2,2v10c0,1.1025391,0.8969727,2,2,2h14c1.1030273,0,2-0.8974609,2-2V12C21,10.8974609,20.1030273,10,19,10z M10,2.25c0-0.4130859,0.3364258-0.75,0.75-0.75s0.75,0.3369141,0.75,0.75S11.1635742,3,10.75,3S10,2.6630859,10,2.25z"/><g></g><g></g><g></g><g></g><g></g><g></g><g></g><g></g><g></g><g></g><g></g><g></g><g></g><g></g><g></g></svg>