<svg xmlns="http://www.w3.org/2000/svg" viewBox="0 0 280.71 265.01"><defs><style>.cls-1{fill:#f36631;}.cls-1,.cls-2{fill-rule:evenodd;}.cls-2{fill:#f7941d;}.cls-3{fill:#757f7f;}.cls-4{fill:#303c42;}.cls-5{fill:#fff;}</style></defs><title>Asset 12</title><g id="Layer_2" data-name="Layer 2"><g id="Layer_1-2" data-name="Layer 1"><g id="engine"><g id="Shape_12" data-name="Shape 12"><path class="cls-1" d="M271.11,59.85c-2.72-5-8.46-7.7-7.65-13.06a7.8,7.8,0,0,0,.39,5.39c1.25,3.12,3.56,4.43,4.23,8.13.73,4,0,6.6-1.94,8a8.88,8.88,0,0,0,1.56-6.79c-.86-5.52-4.53-6.08-6.78-10.23-1.89-3.72-2-11.54,1.86-11.8-3.8-1.25-7.95,5.94-5.52,13a11,11,0,0,1-1.16-6.36c.6-5,3.35-7.48,2.55-13.28-1-6.69-5.61-11.57-9.43-12.8,1.83,1,3.26,4,3.78,6.62.67,3-.07,6.34-.72,8.82-1.38,5.12-3.41,9.14-3.22,14.88.18,5.53,2.19,8.12,5,10.63-3.37-1.8-6.92-7.15-5.71-13.56a19.21,19.21,0,0,0-.88,11.67c1.09,4.76,3.58,7.09,6,10.26,1.43,1.84,2.32,4.53,1.11,6.64,1.14-4.51-2.1-6.49-3.72-7.4-2.25-1.26-4.64-3.95-4-7.51-2.65,5.37-1.13,13.48,3.7,19.94,1.15,1.53,6.72,6.15,12.15,4.21l.55-.16c2.53-.76,6-3.72,7.81-7.29C273.6,72.7,274,65,271.11,59.85Z"/></g><g id="Shape_11" data-name="Shape 11"><path class="cls-2" d="M267.68,56.67c1.78,2.42,2,6.88,1.25,8.43-.94,2.06-2,4.05-4.17,4.56a14.48,14.48,0,0,0,2.11-6.76c.06-4-2.63-6.59-4.76-8.76a12,12,0,0,1-3-4.93c-.64-2.35-1-5.84.43-8-1.74,1.81-2.38,4.56-2.15,7.52A20.76,20.76,0,0,0,258.45,54c-2.82-1.28-3.32-5.49-2.8-9.55.32-2,1-3.8,1.42-5.68a18.74,18.74,0,0,0,.62-5.5A13.34,13.34,0,0,0,254,25.12c2.51,2.91,2.08,9.09.66,12.09-1.17,2.51-2.57,5.22-1.66,8.57-1.2-1.25-1.3-4-.74-5.68A18.28,18.28,0,0,0,250.15,50a16.1,16.1,0,0,0,2.58,8.13A18.62,18.62,0,0,0,256,62a11.51,11.51,0,0,1-8.15-9c-.93,11.13,8.15,13.16,8.27,20.24a6.55,6.55,0,0,1-2.07,4.85c.56-2.72.12-5.87-2.11-7.21-1.73-1.08-4.77-.48-5.07-4.29-.14,9.29,5.34,15.54,11,17.72a7.86,7.86,0,0,0,5.05.1l.25-.08a13.6,13.6,0,0,0,4.8-3.87C273.05,74.05,273.32,62.35,267.68,56.67Z"/></g><path d="M260.79,118.55,217,133.86l8,13,46-15.42a14.24,14.24,0,0,0,9-18L269.55,82.32l-14.66,4.91L263.53,113A4.36,4.36,0,0,1,260.79,118.55Z"/><g id="Shape_12-2" data-name="Shape 12"><path class="cls-1" d="M245.28,49.52c-2.83-4.88-8.65-7.49-8-12.87a7.74,7.74,0,0,0,.52,5.39c1.33,3.08,3.67,4.33,4.43,8,.82,3.93.13,6.6-1.75,8a8.9,8.9,0,0,0,1.4-6.83c-1-5.5-4.68-6-7-10.06-2-3.67-2.32-11.49,1.56-11.84-3.82-1.16-7.79,6.13-5.19,13.12a11,11,0,0,1-1.32-6.34c.48-5,3.17-7.56,2.22-13.34-1.14-6.66-5.89-11.42-9.73-12.56,1.85,1,3.36,3.87,3.94,6.52.75,3,.08,6.34-.51,8.84-1.25,5.15-3.18,9.22-2.85,15,.31,5.51,2.39,8.06,5.24,10.49-3.41-1.71-7.08-7-6-13.41a19.29,19.29,0,0,0-.6,11.69c1.21,4.73,3.75,7,6.23,10.11,1.48,1.81,2.43,4.47,1.27,6.61,1-4.53-2.25-6.44-3.9-7.3-2.28-1.21-4.73-3.84-4.15-7.41-2.51,5.42-.8,13.5,4.18,19.83,1.2,1.51,6.87,6,12.26,3.92l.54-.18c2.51-.82,5.93-3.86,7.63-7.48C248.09,62.31,248.28,54.64,245.28,49.52Z"/></g><g id="Shape_12-3" data-name="Shape 12"><path class="cls-1" d="M216.76,37.51c-3.19-4.67-9.18-6.84-8.89-12.25a7.8,7.8,0,0,0,.91,5.33c1.55,3,4,4.05,5,7.67,1.11,3.86.62,6.57-1.15,8.14a8.89,8.89,0,0,0,.89-6.92c-1.4-5.41-5.1-5.61-7.75-9.52-2.24-3.52-3.15-11.28.69-11.92-3.9-.87-7.32,6.69-4.21,13.46a10.94,10.94,0,0,1-1.78-6.22c.1-5.05,2.6-7.77,1.23-13.46C200.08,5.25,195,.85,191.08,0c1.92.84,3.64,3.62,4.41,6.22,1,2.93.55,6.31.14,8.85-.86,5.23-2.49,9.43-1.74,15.12.71,5.48,3,7.87,6,10.09-3.53-1.46-7.58-6.44-7-12.94a19.17,19.17,0,0,0,.26,11.7c1.55,4.63,4.25,6.71,6.95,9.63,1.61,1.69,2.75,4.28,1.75,6.5.7-4.6-2.72-6.25-4.42-7-2.36-1-5-3.48-4.68-7.08-2.11,5.59.19,13.52,5.62,19.47,1.31,1.42,7.29,5.47,12.51,3l.53-.22c2.44-1,5.63-4.29,7.07-8C220.5,50.05,220.13,42.39,216.76,37.51Z"/></g><g id="Shape_11-2" data-name="Shape 11"><path class="cls-2" d="M213,34.68c2,2.23,2.62,6.66,2.07,8.27-.74,2.14-1.63,4.22-3.71,4.94A14.3,14.3,0,0,0,212.84,41c-.34-4-3.27-6.3-5.59-8.26a11.89,11.89,0,0,1-3.48-4.6c-.87-2.28-1.54-5.73-.36-8-1.55,2-1.92,4.77-1.4,7.69a20.58,20.58,0,0,0,1.58,5.12c-2.93-1-3.85-5.15-3.72-9.24.12-2,.63-3.88.86-5.79a18.62,18.62,0,0,0,.07-5.53,13.39,13.39,0,0,0-4.45-7.74c2.79,2.66,3,8.85,1.85,12-.92,2.61-2,5.45-.82,8.69-1.32-1.12-1.69-3.88-1.29-5.58a18.41,18.41,0,0,0-1.16,10.08,16.16,16.16,0,0,0,3.38,7.84,18.45,18.45,0,0,0,3.63,3.53,11.5,11.5,0,0,1-9-8.2c.16,11.17,9.39,12.31,10.21,19.34a6.58,6.58,0,0,1-1.58,5c.28-2.76-.46-5.86-2.81-7-1.82-.91-4.8,0-5.46-3.78.77,9.26,6.83,14.95,12.69,16.57a8,8,0,0,0,5-.41l.24-.1a13.63,13.63,0,0,0,4.4-4.31C220.08,51.45,219.2,39.78,213,34.68Z"/></g><g id="Shape_11-3" data-name="Shape 11"><path class="cls-2" d="M241.78,46.43c1.83,2.37,2.13,6.83,1.46,8.39-.9,2.09-1.94,4.1-4.06,4.67a14.44,14.44,0,0,0,1.94-6.81c0-4.06-2.79-6.53-5-8.65A12,12,0,0,1,233,39.18c-.7-2.34-1.12-5.82.23-8-1.69,1.85-2.27,4.62-2,7.57A20.5,20.5,0,0,0,232.49,44c-2.85-1.21-3.46-5.41-3-9.48.26-2,.91-3.82,1.28-5.71a18.78,18.78,0,0,0,.48-5.51,13.42,13.42,0,0,0-3.87-8c2.58,2.86,2.3,9.05,1,12.07-1.11,2.54-2.44,5.29-1.45,8.61-1.24-1.21-1.4-4-.89-5.66a18.38,18.38,0,0,0-1.88,10,16,16,0,0,0,2.78,8.07,18.75,18.75,0,0,0,3.37,3.79,11.5,11.5,0,0,1-8.36-8.84c-.67,11.15,8.46,13,8.76,20a6.59,6.59,0,0,1-1.95,4.9c.48-2.73,0-5.87-2.29-7.15-1.75-1-4.79-.37-5.17-4.17.09,9.29,5.71,15.41,11.44,17.45a8,8,0,0,0,5.06,0l.25-.08a13.67,13.67,0,0,0,4.7-4C247.57,63.67,247.55,52,241.78,46.43Z"/></g><g id="Shape_12-4" data-name="Shape 12"><path class="cls-1" d="M10.09,59.85c2.72-5,8.47-7.7,7.65-13.06a7.8,7.8,0,0,1-.39,5.39c-1.25,3.12-3.56,4.43-4.23,8.13-.72,4,0,6.6,1.94,8A8.88,8.88,0,0,1,13.5,61.5C14.36,56,18,55.42,20.28,51.27c1.89-3.72,2-11.54-1.86-11.8,3.8-1.25,8,5.94,5.52,13a11,11,0,0,0,1.16-6.36c-.59-5-3.35-7.48-2.54-13.28,1-6.69,5.6-11.57,9.42-12.8-1.83,1-3.26,4-3.78,6.62-.67,3,.07,6.34.73,8.82,1.37,5.12,3.4,9.14,3.21,14.88C32,55.86,30,58.45,27.15,61c3.37-1.8,6.92-7.15,5.71-13.56a19.21,19.21,0,0,1,.88,11.67c-1.09,4.76-3.58,7.09-6,10.26-1.43,1.84-2.32,4.53-1.11,6.64-1.14-4.51,2.1-6.49,3.72-7.4,2.25-1.26,4.64-3.95,4-7.51C37,66.43,35.47,74.54,30.64,81c-1.15,1.53-6.72,6.15-12.15,4.21l-.55-.16c-2.53-.76-6-3.72-7.81-7.29C7.6,72.7,7.22,65,10.09,59.85Z"/></g><g id="Shape_11-4" data-name="Shape 11"><path class="cls-2" d="M13.52,56.67c-1.78,2.42-2,6.88-1.25,8.43.94,2.06,2,4.05,4.17,4.56a14.48,14.48,0,0,1-2.11-6.76c-.06-4,2.63-6.59,4.76-8.76a12,12,0,0,0,3-4.93c.64-2.35,1-5.84-.43-8,1.74,1.81,2.38,4.56,2.15,7.52A20.76,20.76,0,0,1,22.75,54c2.82-1.28,3.32-5.49,2.8-9.55-.32-2-1-3.8-1.42-5.68a18.74,18.74,0,0,1-.62-5.5,13.34,13.34,0,0,1,3.67-8.13c-2.51,2.91-2.08,9.09-.66,12.09,1.17,2.51,2.57,5.22,1.66,8.57,1.2-1.25,1.3-4,.74-5.68A18.38,18.38,0,0,1,31.06,50a16.21,16.21,0,0,1-2.59,8.13A18.62,18.62,0,0,1,25.19,62a11.51,11.51,0,0,0,8.15-9c.93,11.13-8.14,13.16-8.27,20.24a6.55,6.55,0,0,0,2.07,4.85c-.56-2.72-.12-5.87,2.11-7.21,1.73-1.08,4.78-.48,5.07-4.29.14,9.29-5.34,15.54-11,17.72a7.86,7.86,0,0,1-5.05.1L18,84.31a13.6,13.6,0,0,1-4.8-3.87C8.15,74.05,7.88,62.35,13.52,56.67Z"/></g><g id="Shape_12-5" data-name="Shape 12"><path class="cls-1" d="M35.92,49.52c2.83-4.88,8.65-7.49,8-12.87A7.74,7.74,0,0,1,43.36,42c-1.32,3.08-3.67,4.33-4.43,8-.82,3.93-.13,6.6,1.75,8a8.9,8.9,0,0,1-1.4-6.83c1-5.5,4.68-6,7-10.06,2-3.67,2.32-11.49-1.56-11.84,3.82-1.16,7.8,6.13,5.19,13.12a11,11,0,0,0,1.32-6.34c-.48-5-3.17-7.56-2.22-13.34,1.14-6.66,5.89-11.42,9.73-12.56-1.85,1-3.36,3.87-3.94,6.52-.75,3-.08,6.34.51,8.84,1.25,5.15,3.18,9.22,2.85,15C57.88,46.06,55.8,48.61,53,51c3.41-1.71,7.08-7,6-13.41a19.29,19.29,0,0,1,.6,11.69c-1.21,4.73-3.75,7-6.23,10.11-1.48,1.81-2.43,4.47-1.27,6.61-1-4.53,2.26-6.44,3.9-7.3,2.28-1.21,4.73-3.84,4.15-7.41,2.51,5.42.8,13.5-4.18,19.83-1.2,1.51-6.87,6-12.26,3.92l-.54-.18c-2.51-.82-5.93-3.86-7.63-7.48C33.11,62.31,32.92,54.64,35.92,49.52Z"/></g><g id="Shape_12-6" data-name="Shape 12"><path class="cls-1" d="M64.44,37.51c3.19-4.67,9.18-6.84,8.89-12.25a7.8,7.8,0,0,1-.91,5.33c-1.55,3-4,4.05-5,7.67-1.11,3.86-.62,6.57,1.15,8.14a8.89,8.89,0,0,1-.89-6.92c1.4-5.41,5.1-5.61,7.75-9.52,2.25-3.52,3.16-11.28-.69-11.92,3.9-.87,7.33,6.69,4.21,13.46a10.94,10.94,0,0,0,1.78-6.22c-.1-5.05-2.6-7.77-1.23-13.46C81.12,5.25,86.2.85,90.12,0c-1.92.84-3.64,3.62-4.41,6.22-1,2.93-.55,6.31-.14,8.85.86,5.23,2.49,9.43,1.74,15.12-.71,5.48-3,7.87-6,10.09,3.53-1.46,7.58-6.44,7-12.94A19.17,19.17,0,0,1,88.05,39c-1.55,4.63-4.25,6.71-7,9.63-1.61,1.69-2.75,4.28-1.75,6.5-.7-4.6,2.72-6.25,4.42-7,2.36-1,5-3.48,4.68-7.08,2.11,5.59-.19,13.52-5.62,19.47-1.3,1.42-7.29,5.47-12.51,3l-.53-.22c-2.44-1-5.63-4.29-7.07-8C60.7,50.05,61.08,42.39,64.44,37.51Z"/></g><g id="Shape_11-5" data-name="Shape 11"><path class="cls-2" d="M68.16,34.68c-2,2.23-2.62,6.66-2.07,8.27.74,2.14,1.63,4.22,3.71,4.94A14.3,14.3,0,0,1,68.36,41c.34-4,3.27-6.3,5.59-8.26a11.89,11.89,0,0,0,3.48-4.6c.87-2.28,1.54-5.73.36-8,1.55,2,1.92,4.77,1.4,7.69a20.58,20.58,0,0,1-1.58,5.12c2.93-1,3.85-5.15,3.72-9.24-.12-2-.63-3.88-.86-5.79a18.62,18.62,0,0,1-.07-5.53,13.39,13.39,0,0,1,4.45-7.74c-2.79,2.66-3,8.85-1.85,12,.92,2.61,2,5.45.82,8.69,1.32-1.12,1.69-3.88,1.29-5.58a18.41,18.41,0,0,1,1.16,10.08,16.16,16.16,0,0,1-3.38,7.84,18.45,18.45,0,0,1-3.63,3.53,11.5,11.5,0,0,0,9-8.2C88.09,44.11,78.86,45.25,78,52.28a6.58,6.58,0,0,0,1.58,5c-.28-2.76.46-5.86,2.81-7,1.82-.91,4.8,0,5.46-3.78-.77,9.26-6.83,14.95-12.69,16.57a8,8,0,0,1-5-.41l-.24-.1a13.63,13.63,0,0,1-4.4-4.31C61.12,51.45,62,39.78,68.16,34.68Z"/></g><g id="Shape_11-6" data-name="Shape 11"><path class="cls-2" d="M39.42,46.43c-1.83,2.37-2.13,6.83-1.46,8.39.9,2.09,1.94,4.1,4.06,4.67a14.44,14.44,0,0,1-1.94-6.81c0-4.06,2.79-6.53,5-8.65a12,12,0,0,0,3.13-4.85c.7-2.34,1.12-5.82-.23-8,1.69,1.85,2.27,4.62,2,7.57A20.5,20.5,0,0,1,48.71,44c2.85-1.21,3.46-5.41,3-9.48-.26-2-.91-3.82-1.28-5.71A18.78,18.78,0,0,1,50,23.26a13.42,13.42,0,0,1,3.87-8c-2.58,2.86-2.3,9.05-1,12.07,1.11,2.54,2.44,5.29,1.45,8.61,1.24-1.21,1.4-4,.89-5.66a18.38,18.38,0,0,1,1.88,10,16,16,0,0,1-2.78,8.07A18.75,18.75,0,0,1,51,52.06a11.5,11.5,0,0,0,8.36-8.84c.67,11.15-8.46,13-8.76,20a6.59,6.59,0,0,0,1.95,4.9c-.48-2.73,0-5.87,2.29-7.15,1.75-1,4.79-.37,5.17-4.17-.09,9.29-5.71,15.41-11.44,17.45a8,8,0,0,1-5.06,0l-.25-.08a13.67,13.67,0,0,1-4.7-4C33.63,63.67,33.65,52,39.42,46.43Z"/></g><path d="M235.79,108.55,196,121.86l15,11,35-11.42a14.24,14.24,0,0,0,9-18L244.55,72.32l-14.66,4.91L238.53,103A4.36,4.36,0,0,1,235.79,108.55Z"/><path d="M208.79,96.55,169,109.86l15,11,35-11.42a14.24,14.24,0,0,0,9-18L217.55,60.32l-14.66,4.91L211.53,91A4.36,4.36,0,0,1,208.79,96.55Z"/><path d="M19.92,118.55l43.79,15.31-8,13-46-15.42a14.23,14.23,0,0,1-9-18L11.15,82.32l14.67,4.91L17.18,113A4.35,4.35,0,0,0,19.92,118.55Z"/><path d="M44.92,108.55l39.79,13.31-15,11-35-11.42a14.23,14.23,0,0,1-9-18L36.15,72.32l14.67,4.91L42.18,103A4.35,4.35,0,0,0,44.92,108.55Z"/><path d="M71.92,96.55l39.79,13.31-15,11-35-11.42a14.23,14.23,0,0,1-9-18L63.15,60.32l14.67,4.91L69.18,91A4.35,4.35,0,0,0,71.92,96.55Z"/><path class="cls-3" d="M100.23,149.85a2,2,0,0,0-2,2,2,2,0,0,0,2,2,1.94,1.94,0,0,0,2-2A2,2,0,0,0,100.23,149.85Z"/><path class="cls-3" d="M173.4,177.14a5.7,5.7,0,1,0-5.69,5.7A5.69,5.69,0,0,0,173.4,177.14Z"/><path class="cls-3" d="M115.52,214.37a1,1,0,0,0,.94-1,1,1,0,1,0-1.91,0A1,1,0,0,0,115.52,214.37Z"/><path class="cls-3" d="M220.9,153l-56.53-39.22-3.11-2.1.3-.41H118l.3.41-3.94,2.7-24.59,17,.26.38a22.37,22.37,0,0,1,19.87-.3l58.9,12.85a32.83,32.83,0,0,1,11,63.36L179,208l-13.94,5.21-38.36,15.56a18.6,18.6,0,0,1-11.17,3.67,19.07,19.07,0,0,1-19-19,3.49,3.49,0,0,1,0-.64L82.24,165.26a22.32,22.32,0,0,1,2.21-29.39l-.34-.49L58.61,153l16.76,42.84,27,69.13h74.72l27-69.13,16.75-42.81Z"/><path class="cls-3" d="M134.53,213.43l17.85-7.27a32.8,32.8,0,0,1-4.8-54.89l-25.79-5.66a21.36,21.36,0,0,1,.9,6.22,22.48,22.48,0,0,1-22.46,22.46,22.73,22.73,0,0,1-3.64-.3l7.31,24.33a19,19,0,0,1,30.63,15.07Z"/><path class="cls-3" d="M157.25,208.25,134,217.7v0a18.31,18.31,0,0,1-1.77,4.72l31.38-12.74A29.69,29.69,0,0,1,157.25,208.25Z"/><path class="cls-3" d="M120.13,141.42l31.83,7h0a29.62,29.62,0,0,1,5.89-2.55L117,136.92A21.69,21.69,0,0,1,120.13,141.42Z"/><path class="cls-3" d="M87.71,170.47l10.53,35a18.45,18.45,0,0,1,2.63-4.19l-8.55-28.42A19.12,19.12,0,0,1,87.71,170.47Z"/><path class="cls-4" d="M196.77,177.14a29.05,29.05,0,1,0-29.05,29.09A29,29,0,0,0,196.77,177.14Zm-38.5,0a9.45,9.45,0,1,1,9.45,9.45A9.46,9.46,0,0,1,158.27,177.14Z"/><path class="cls-4" d="M100.24,133.09A18.73,18.73,0,1,0,119,151.83,18.75,18.75,0,0,0,100.24,133.09Zm0,24.44a5.72,5.72,0,1,1,5.7-5.7A5.7,5.7,0,0,1,100.24,157.53Z"/><path class="cls-4" d="M115.54,228.69a15.3,15.3,0,1,0-15.3-15.3A15.28,15.28,0,0,0,115.54,228.69Zm0-20a4.73,4.73,0,1,1-4.73,4.72A4.69,4.69,0,0,1,115.54,208.67Z"/><path class="cls-4" d="M183.52,71.09H96a4.67,4.67,0,0,0-4.67,4.66v2A20.19,20.19,0,0,0,111.53,98H166a22.29,22.29,0,0,0,22.22-22.22h0A4.66,4.66,0,0,0,183.52,71.09Z"/><rect class="cls-3" x="114.88" y="100.09" width="49.77" height="7.19"/><path class="cls-3" d="M112.23,111.31l.82-.56-6.79-9.86H87.6V91.1a14.6,14.6,0,0,0-4.8,2.18l-56.65,39a15,15,0,0,0-3.82,20.89l9.56,13.87,2.77-1.92,22.57-15.67Z"/><path class="cls-3" d="M36.46,168.4,49,191s1.65,4.91,6.08,4.91h16.3L55.43,155.25Z"/><path class="cls-3" d="M253.37,132.3l-56.64-39a14.88,14.88,0,0,0-4.8-2.18v9.79H173.25l-6.78,9.86.82.56,55,38.16,22.57,15.67,2.77,1.92,9.56-13.87A15,15,0,0,0,253.37,132.3Z"/><path class="cls-3" d="M208.16,195.88h16.3c4.43,0,6.08-4.91,6.08-4.91L243,168.44l-19-13.16Z"/><circle cx="139.76" cy="84.53" r="9.5"/><circle cx="163.76" cy="84.53" r="9.5"/><circle cx="114.88" cy="84.69" r="9.5"/><path class="cls-5" d="M105.88,84.69h0a1.33,1.33,0,0,1,1.17-1.44h15.66a1.33,1.33,0,0,1,1.17,1.44h0a1.34,1.34,0,0,1-1.17,1.45H107.05A1.34,1.34,0,0,1,105.88,84.69Z"/><path class="cls-5" d="M130.88,84.69h0a1.33,1.33,0,0,1,1.17-1.44h15.66a1.33,1.33,0,0,1,1.17,1.44h0a1.34,1.34,0,0,1-1.17,1.45H132.05A1.34,1.34,0,0,1,130.88,84.69Z"/><path class="cls-5" d="M154.88,84.69h0a1.33,1.33,0,0,1,1.17-1.44h15.66a1.33,1.33,0,0,1,1.17,1.44h0a1.34,1.34,0,0,1-1.17,1.45H156.05A1.34,1.34,0,0,1,154.88,84.69Z"/><rect class="cls-5" x="207.86" y="64.42" width="1" height="25.96" rx="0.5" ry="0.5" transform="translate(430.35 88.37) rotate(162.45)"/><rect class="cls-5" x="71.86" y="64.42" width="1" height="25.96" rx="0.5" ry="0.5" transform="translate(26.7 -18.21) rotate(17.55)"/><rect class="cls-5" x="260" y="86.39" width="1" height="26.91" rx="0.5" ry="0.5" transform="translate(538.99 116.52) rotate(162.45)"/><rect class="cls-5" x="19.5" y="86.39" width="1" height="26.91" rx="0.5" ry="0.5" transform="translate(31.03 -1.38) rotate(17.55)"/><rect class="cls-5" x="235" y="76.37" width="1" height="27.87" rx="0.5" ry="0.5" transform="translate(487.27 105.41) rotate(162.45)"/><rect class="cls-5" x="44.5" y="76.37" width="1" height="27.87" rx="0.5" ry="0.5" transform="translate(29.32 -9.37) rotate(17.55)"/></g></g></g></svg>