<?xml version="1.0" encoding="iso-8859-1"?><svg version="1.1" id="Layer_1" xmlns="http://www.w3.org/2000/svg" xmlns:xlink="http://www.w3.org/1999/xlink" x="0px" y="0px" viewBox="0 0 24 24" enable-background="new 0 0 24 24" xml:space="preserve"><g><path fill="#030303" d="M3.5,6h17C21.8789063,6,23,4.878418,23,3.5S21.8789063,1,20.5,1h-17C2.1210938,1,1,2.121582,1,3.5S2.1210938,6,3.5,6z"/><path fill="#030303" d="M20.5,9.5h-17C2.1210938,9.5,1,10.621582,1,12s1.1210938,2.5,2.5,2.5h17c1.3789063,0,2.5-1.121582,2.5-2.5S21.8789063,9.5,20.5,9.5z"/><path fill="#030303" d="M20.5,18h-17C2.1210938,18,1,19.121582,1,20.5S2.1210938,23,3.5,23h17c1.3789063,0,2.5-1.121582,2.5-2.5S21.8789063,18,20.5,18z"/></g><g></g><g></g><g></g><g></g><g></g><g></g><g></g><g></g><g></g><g></g><g></g><g></g><g></g><g></g><g></g></svg>