<?xml version="1.0" encoding="iso-8859-1"?><svg version="1.1" id="Layer_1" xmlns="http://www.w3.org/2000/svg" xmlns:xlink="http://www.w3.org/1999/xlink" x="0px" y="0px" viewBox="0 0 24 24" enable-background="new 0 0 24 24" xml:space="preserve"><path fill="#303C42" d="M22.5,10c-0.8271484,0-1.5,0.6728516-1.5,1.5V13h-1v-1.8789063c0-0.5263672-0.2133789-1.0419922-0.5859375-1.4140625l-1.1210938-1.1210938C17.9208984,8.2133789,17.4052734,8,16.8789063,8H14V6h1.5C16.3271484,6,17,5.3271484,17,4.5S16.3271484,3,15.5,3h-6C8.6728516,3,8,3.6728516,8,4.5S8.6728516,6,9.5,6H11v2H9.1210938C8.5947266,8,8.0791016,8.2133789,7.7070313,8.5859375L6.2929688,10H5.5C4.6728516,10,4,10.6728516,4,11.5V13H3v-1.5C3,10.6728516,2.3271484,10,1.5,10S0,10.6728516,0,11.5v6C0,18.3271484,0.6728516,19,1.5,19S3,18.3271484,3,17.5V16h1v1.5C4,18.3271484,4.6728516,19,5.5,19h0.7929688l1.4140625,1.4140625C8.0791016,20.7866211,8.5947266,21,9.1210938,21h6.7578125c0.5263672,0,1.0419922-0.2133789,1.4140625-0.5859375l2.1210938-2.1210938C19.7866211,17.9208984,20,17.4052734,20,16.8789063V16h1v1.5c0,0.8271484,0.6728516,1.5,1.5,1.5s1.5-0.6728516,1.5-1.5v-6C24,10.6728516,23.3271484,10,22.5,10z"/><g></g><g></g><g></g><g></g><g></g><g></g><g></g><g></g><g></g><g></g><g></g><g></g><g></g><g></g><g></g></svg>