<?xml version="1.0" encoding="iso-8859-1"?><svg version="1.1" id="Layer_1" xmlns="http://www.w3.org/2000/svg" xmlns:xlink="http://www.w3.org/1999/xlink" x="0px" y="0px" viewBox="0 0 24 24" enable-background="new 0 0 24 24" xml:space="preserve"><path fill="#303C42" d="M21.7929688,16c0.5893555,0,1.1435547-0.2294922,1.5605469-0.6464844S24,14.3823242,24,13.7929688V4.2070313c0-0.5893555-0.2294922-1.1435547-0.6464844-1.5605469S22.3823242,2,21.7929688,2h-3.5859375c-0.5893555,0-1.1435547,0.2294922-1.5605469,0.6464844S16,3.6176758,16,4.2070313v3.0859375C16,7.5561523,16.1069336,7.8139648,16.2929688,8L17,8.7070313v5.0859375c0,0.5893555,0.2294922,1.1435547,0.6464844,1.5605469S18.6176758,16,19.2070313,16h0.3504028l0.3653564,3h-7.8564453l0.375-3h0.3516235c0.5893555,0,1.1435547-0.2294922,1.5605469-0.6464844S15,14.3823242,15,13.7929688V8c0-1.1030273-0.8969727-2-2-2h-3C8.8969727,6,8,6.8969727,8,8v5.7929688c0,0.5893555,0.2294922,1.1435547,0.6464844,1.5605469S9.6176758,16,10.2070313,16h0.3516235l0.375,3H4.0784302l0.3647461-3h0.3497925c0.5893555,0,1.1435547-0.2294922,1.5605469-0.6464844S7,14.3823242,7,13.7929688V8c0-1.1030273-0.8969727-2-2-2H2C0.8969727,6,0,6.8969727,0,8v5.7929688c0,0.5893555,0.2294922,1.1435547,0.6464844,1.5605469S1.6176758,16,2.2070313,16h0.3533325l0.3881836,3H2c-1.1030273,0-2,0.8969727-2,2v0.5C0,21.7763672,0.2236328,22,0.5,22h23c0.2763672,0,0.5-0.2236328,0.5-0.5V21c0-1.1030273-0.8969727-2-2-2h-0.9476318l0.3873901-3H21.7929688z M21.0527344,5.2763672c0.1240234-0.2470703,0.4233398-0.3461914,0.6708984-0.2236328l1,0.5c0.2470703,0.1235352,0.347168,0.4238281,0.2236328,0.6708984C22.859375,6.3989258,22.6831055,6.5,22.4995117,6.5c-0.0751953,0-0.1513672-0.0170898-0.2231445-0.0527344l-1-0.5C21.0292969,5.8237305,20.9291992,5.5234375,21.0527344,5.2763672z M21.0527344,8.2763672c0.1240234-0.2475586,0.4233398-0.3466797,0.6708984-0.2236328l1,0.5c0.2470703,0.1235352,0.347168,0.4238281,0.2236328,0.6708984C22.859375,9.3989258,22.6831055,9.5,22.4995117,9.5c-0.0751953,0-0.1513672-0.0170898-0.2231445-0.0527344l-1-0.5C21.0292969,8.8237305,20.9291992,8.5234375,21.0527344,8.2763672z M21.0527344,11.2763672c0.1240234-0.246582,0.4233398-0.3457031,0.6708984-0.2236328l1,0.5c0.2470703,0.1235352,0.347168,0.4238281,0.2236328,0.6708984C22.859375,12.3989258,22.6831055,12.5,22.4995117,12.5c-0.0751953,0-0.1513672-0.0170898-0.2231445-0.0527344l-1-0.5C21.0292969,11.8237305,20.9291992,11.5234375,21.0527344,11.2763672z M19.9472656,8.2763672c0.1235352,0.2470703,0.0234375,0.5473633-0.2236328,0.6708984l-1,0.5C18.6518555,9.4829102,18.5756836,9.5,18.5004883,9.5c-0.1835938,0-0.3598633-0.1010742-0.4477539-0.2763672c-0.1235352-0.2470703-0.0234375-0.5473633,0.2236328-0.6708984l1-0.5C19.5234375,7.9296875,19.8227539,8.0288086,19.9472656,8.2763672z M17.5004883,6.5c-0.1835938,0-0.3598633-0.1010742-0.4477539-0.2763672c-0.1235352-0.2470703-0.0234375-0.5473633,0.2236328-0.6708984l1-0.5c0.2470703-0.1225586,0.5473633-0.0234375,0.6708984,0.2236328s0.0234375,0.5473633-0.2236328,0.6708984l-1,0.5C17.6518555,6.4829102,17.5756836,6.5,17.5004883,6.5z M18.7236328,12.4472656C18.6518555,12.4829102,18.5756836,12.5,18.5004883,12.5c-0.1835938,0-0.3598633-0.1010742-0.4477539-0.2763672c-0.1235352-0.2470703-0.0234375-0.5473633,0.2236328-0.6708984l1-0.5c0.2470703-0.1220703,0.5463867-0.0229492,0.6708984,0.2236328c0.1235352,0.2470703,0.0234375,0.5473633-0.2236328,0.6708984L18.7236328,12.4472656z M12.0527344,8.7763672c0.1235352-0.2470703,0.4243164-0.3461914,0.6708984-0.2236328l1,0.5c0.2470703,0.1235352,0.347168,0.4238281,0.2236328,0.6708984C13.859375,9.8989258,13.6831055,10,13.4995117,10c-0.0751953,0-0.1513672-0.0170898-0.2231445-0.0527344l-1-0.5C12.0292969,9.3237305,11.9291992,9.0234375,12.0527344,8.7763672z M12.0527344,11.7763672c0.1235352-0.2470703,0.4243164-0.3461914,0.6708984-0.2236328l1,0.5c0.2470703,0.1235352,0.347168,0.4238281,0.2236328,0.6708984C13.859375,12.8989258,13.6831055,13,13.4995117,13c-0.0751953,0-0.1513672-0.0170898-0.2231445-0.0527344l-1-0.5C12.0292969,12.3237305,11.9291992,12.0234375,12.0527344,11.7763672z M9.2763672,9.0527344l1-0.5c0.246582-0.1225586,0.546875-0.0234375,0.6708984,0.2236328c0.1235352,0.2470703,0.0234375,0.5473633-0.2236328,0.6708984l-1,0.5C9.6518555,9.9829102,9.5756836,10,9.5004883,10C9.3168945,10,9.140625,9.8989258,9.0527344,9.7236328C8.9291992,9.4765625,9.0292969,9.1762695,9.2763672,9.0527344z M9.7236328,12.9472656C9.6518555,12.9829102,9.5756836,13,9.5004883,13c-0.1835938,0-0.3598633-0.1010742-0.4477539-0.2763672c-0.1235352-0.2470703-0.0234375-0.5473633,0.2236328-0.6708984l1-0.5c0.246582-0.1225586,0.546875-0.0234375,0.6708984,0.2236328c0.1235352,0.2470703,0.0234375,0.5473633-0.2236328,0.6708984L9.7236328,12.9472656z M4.0527344,8.7763672c0.1235352-0.2470703,0.4238281-0.3461914,0.6708984-0.2236328l1,0.5c0.2470703,0.1235352,0.347168,0.4238281,0.2236328,0.6708984C5.859375,9.8989258,5.6831055,10,5.4995117,10c-0.0751953,0-0.1513672-0.0170898-0.2231445-0.0527344l-1-0.5C4.0292969,9.3237305,3.9291992,9.0234375,4.0527344,8.7763672z M4.0527344,11.7763672c0.1235352-0.2470703,0.4238281-0.3461914,0.6708984-0.2236328l1,0.5c0.2470703,0.1235352,0.347168,0.4238281,0.2236328,0.6708984C5.859375,12.8989258,5.6831055,13,5.4995117,13c-0.0751953,0-0.1513672-0.0170898-0.2231445-0.0527344l-1-0.5C4.0292969,12.3237305,3.9291992,12.0234375,4.0527344,11.7763672z M1.2763672,9.0527344l1-0.5c0.2475586-0.1225586,0.546875-0.0234375,0.6708984,0.2236328c0.1235352,0.2470703,0.0234375,0.5473633-0.2236328,0.6708984l-1,0.5C1.6518555,9.9829102,1.5756836,10,1.5004883,10C1.3168945,10,1.140625,9.8989258,1.0527344,9.7236328C0.9291992,9.4765625,1.0292969,9.1762695,1.2763672,9.0527344z M1.7236328,12.9472656C1.6518555,12.9829102,1.5756836,13,1.5004883,13c-0.1835938,0-0.3598633-0.1010742-0.4477539-0.2763672c-0.1235352-0.2470703-0.0234375-0.5473633,0.2236328-0.6708984l1-0.5c0.2475586-0.1225586,0.546875-0.0234375,0.6708984,0.2236328c0.1235352,0.2470703,0.0234375,0.5473633-0.2236328,0.6708984L1.7236328,12.9472656z"/><g></g><g></g><g></g><g></g><g></g><g></g><g></g><g></g><g></g><g></g><g></g><g></g><g></g><g></g><g></g></svg>