<?xml version="1.0" encoding="iso-8859-1"?><svg version="1.1" id="Layer_1" xmlns="http://www.w3.org/2000/svg" xmlns:xlink="http://www.w3.org/1999/xlink" x="0px" y="0px" viewBox="0 0 24 24" enable-background="new 0 0 24 24" xml:space="preserve"><path fill="#303C42" d="M16.9160156,1.7226563C16.8691406,1.6523438,15.7246094,0,12,0S7.1308594,1.6523438,7.0839844,1.7226563C7.0292969,1.8046875,7,1.9013672,7,2v8.5C7,10.7763672,7.2236328,11,7.5,11h1c0.0776367,0,0.1542969-0.0180664,0.2236328-0.0527344L10,10.309082v6.2387695C8.7583008,17.2626953,8,18.5581055,8,20c0,2.2055664,1.7944336,4,4,4s4-1.7944336,4-4c0-1.4418945-0.7583008-2.7373047-2-3.4521484V10.309082l1.2763672,0.6381836C15.3457031,10.9819336,15.4223633,11,15.5,11h1c0.2763672,0,0.5-0.2236328,0.5-0.5V2C17,1.9013672,16.9707031,1.8046875,16.9160156,1.7226563z M8,2.184082C8.2963867,1.8823242,9.3876953,1,12,1s3.7036133,0.8823242,4,1.184082V3H8V2.184082z M13,7c0,0.5512695-0.4487305,1-1,1s-1-0.4487305-1-1s0.4487305-1,1-1S13,6.4487305,13,7z M12,22c-1.1030273,0-2-0.8969727-2-2s0.8969727-2,2-2s2,0.8969727,2,2S13.1030273,22,12,22z"/><g></g><g></g><g></g><g></g><g></g><g></g><g></g><g></g><g></g><g></g><g></g><g></g><g></g><g></g><g></g></svg>