<?xml version="1.0" encoding="iso-8859-1"?><svg version="1.1" id="Layer_1" xmlns="http://www.w3.org/2000/svg" xmlns:xlink="http://www.w3.org/1999/xlink" x="0px" y="0px" viewBox="0 0 24 24" enable-background="new 0 0 24 24" xml:space="preserve"><path fill="#303C42" d="M22,7H2C0.8974609,7,0,7.8974609,0,9v6c0,1.1025391,0.8974609,2,2,2h20c1.1025391,0,2-0.8974609,2-2V9C24,7.8974609,23.1025391,7,22,7z M17.5,12c-0.2763672,0-0.5,0.2236328-0.5,0.5V14h-1v-1.5c0-0.2763672-0.2236328-0.5-0.5-0.5S15,12.2236328,15,12.5V14h-1v-2.5c0-0.2763672-0.2236328-0.5-0.5-0.5S13,11.2236328,13,11.5V14h-1v-1.5c0-0.2763672-0.2236328-0.5-0.5-0.5S11,12.2236328,11,12.5V14H8.8818359C9.2441406,13.4521484,9.5,12.7363281,9.5,12s-0.2558594-1.4521484-0.6181641-2H21v4h-3v-1.5C18,12.2236328,17.7763672,12,17.5,12z M7,12c0,1.3789063-1.1210938,2.5-2.5,2.5S2,13.3789063,2,12s1.1210938-2.5,2.5-2.5S7,10.6210938,7,12z"/><g></g><g></g><g></g><g></g><g></g><g></g><g></g><g></g><g></g><g></g><g></g><g></g><g></g><g></g><g></g></svg>