<?xml version="1.0" encoding="iso-8859-1"?><svg version="1.1" id="Layer_1" xmlns="http://www.w3.org/2000/svg" xmlns:xlink="http://www.w3.org/1999/xlink" x="0px" y="0px" viewBox="0 0 24 24" enable-background="new 0 0 24 24" xml:space="preserve"><path fill="#303C42" d="M19.6446533,17.045166C19.8790894,16.2824707,20,15.5040283,20,14.722168c0-0.8642578-0.1386719-1.71875-0.4121094-2.5395508l-1.1269531-3.3808594c-0.3798828-1.1386719-1.2910156-1.9912109-2.4384766-2.2802734C15.6083374,6.4174194,15.081665,6.3074951,14.5,6.213501V5H15c0.5517578,0,1-0.4487305,1-1V2c0-1.1030273-0.8974609-2-2-2h-4C8.8974609,0,8,0.8969727,8,2v2c0,0.5512695,0.4482422,1,1,1h0.5v1.213501C8.918335,6.3074951,8.3916626,6.4174194,7.9775391,6.5214844C6.8300781,6.8105469,5.9189453,7.6630859,5.5390625,8.8017578l-1.1269531,3.3808594C4.1386719,13.003418,4,13.8579102,4,14.722168c0,0.7818604,0.1209717,1.5603027,0.3554077,2.322998C3.5813599,17.2196655,3,17.9100342,3,18.7358398c0,0.7978516,0.1523438,2.7426758,0.5058594,3.6230469l0.2197266,0.5498047C3.9902344,23.5717773,4.6230469,24,5.3369141,24h13.3994141c0.6611328,0,1.2558594-0.3671875,1.5527344-0.9594727C20.7910156,22.034668,21,19.9306641,21,19.027832v-0.2919922C21,17.9100342,20.4187012,17.2197266,19.6446533,17.045166z M8.2801514,18.4482422L7.53125,16.9736328C7.1835938,16.2768555,7,15.4985352,7,14.722168c0-0.5410156,0.0869141-1.0761719,0.2587891-1.5908203l1.1269531-3.3823242c0.0517483-0.1567383,0.1787109-0.2822266,0.3232422-0.3183594C9.4921875,9.234375,10.6982422,9,12,9c1.3027344,0,2.5078125,0.234375,3.2900391,0.4306641c0.1445313,0.0366211,0.2724504,0.1616211,0.3242188,0.3198242l1.1269531,3.3808594C16.9130859,13.6459961,17,14.1811523,17,14.722168c0,0.7763672-0.1835938,1.5541992-0.5283203,2.2460938l-0.75177,1.4799805C14.7199097,18.2145996,13.4213257,18,12,18S9.2800903,18.2145996,8.2801514,18.4482422z M17.1582031,21.4741211C17.09375,21.4956055,15.5400391,22,12,22s-5.09375-0.5043945-5.1582031-0.5258789C6.5800781,21.387207,6.4394531,21.1054688,6.5263672,20.84375c0.0859375-0.2626953,0.3720703-0.4047852,0.6298828-0.3183594C7.1708984,20.5297852,8.6513672,21,12,21s4.8291016-0.4702148,4.84375-0.4746094c0.2568359-0.0864258,0.5429688,0.0556641,0.6298828,0.3183594C17.5605469,21.1054688,17.4199219,21.387207,17.1582031,21.4741211z"/><g></g><g></g><g></g><g></g><g></g><g></g><g></g><g></g><g></g><g></g><g></g><g></g><g></g><g></g><g></g></svg>