<?xml version="1.0" encoding="iso-8859-1"?><svg version="1.1" id="Layer_1" xmlns="http://www.w3.org/2000/svg" xmlns:xlink="http://www.w3.org/1999/xlink" x="0px" y="0px" viewBox="0 0 24 24" enable-background="new 0 0 24 24" xml:space="preserve"><g><path fill="#303C42" d="M23.5,7h-1c-0.2626953,0-0.4804688,0.2026367-0.4990234,0.4643555c-0.00177,0.0233765-0.171875,2.147522-1.3814697,2.4857788l-1.0638428-3.1893921C18.8056641,4.5112305,16.7089844,3,14.3378906,3H8.6923828C5.1181641,3,1.9501953,5.1445313,0.6230469,8.4628906C0.2099609,9.4941406,0,10.5805664,0,11.6923828C0,14.0673828,1.9326172,16,4.3076172,16H16.5c3.1474609,0,5.5292969,4.6767578,5.5527344,4.7236328C22.1376953,20.8930664,22.3105469,21,22.5,21h1c0.2763672,0,0.5-0.2236328,0.5-0.5v-13C24,7.2236328,23.7763672,7,23.5,7z M18,11.7792969C18,12.4521484,17.4521484,13,16.7792969,13H4.3076172C3.5869141,13,3,12.4135742,3,11.6923828c0-0.7275391,0.1367188-1.4389648,0.4072266-2.1142578C4.2773438,7.4047852,6.3515625,6,8.6923828,6h5.6455078c1.078125,0,2.0302734,0.6870117,2.3710938,1.7094727l1.2275391,3.6811523C17.9785156,11.5180664,18,11.6489258,18,11.7792969z"/><path fill="#303C42" d="M8.1464844,8.1464844l-3,3c-0.1953125,0.1953125-0.1953125,0.5117188,0,0.7070313C5.2441406,11.9511719,5.3720703,12,5.5,12s0.2558594-0.0488281,0.3535156-0.1464844l3-3c0.1953125-0.1953125,0.1953125-0.5117188,0-0.7070313S8.3417969,7.9511719,8.1464844,8.1464844z"/><path fill="#303C42" d="M5.3535156,9.8535156l1-1c0.1953125-0.1953125,0.1953125-0.5117188,0-0.7070313s-0.5117188-0.1953125-0.7070313,0l-1,1c-0.1953125,0.1953125-0.1953125,0.5117188,0,0.7070313C4.7441406,9.9511719,4.8720703,10,5,10S5.2558594,9.9511719,5.3535156,9.8535156z"/></g><g></g><g></g><g></g><g></g><g></g><g></g><g></g><g></g><g></g><g></g><g></g><g></g><g></g><g></g><g></g></svg>