<?xml version="1.0" encoding="iso-8859-1"?><svg version="1.1" id="Layer_1" xmlns="http://www.w3.org/2000/svg" xmlns:xlink="http://www.w3.org/1999/xlink" x="0px" y="0px" viewBox="0 0 24 24" enable-background="new 0 0 24 24" xml:space="preserve"><g><path fill="#303C42" d="M13.5,18h-3c-0.2763672,0-0.5,0.2236328-0.5,0.5s0.2236328,0.5,0.5,0.5h3c0.2763672,0,0.5-0.2236328,0.5-0.5S13.7763672,18,13.5,18z"/><path fill="#303C42" d="M19.8547974,7.6190186C18.3135986,4.8668213,15.3724976,3,12,3C8.6292114,3,5.6895142,4.8649902,4.1477051,7.6148682C1.6262207,8.7433472,0,11.2286987,0,14c0,3.859375,3.140625,7,7,7c0.8102417,0,1.6009521-0.1418457,2.354248-0.4115601C10.1997681,20.8483276,11.0856323,21,12,21c0.9147339,0,1.8009033-0.1517944,2.6466675-0.4118652C15.401123,20.8583374,16.1912231,21,17,21c3.859375,0,7-3.140625,7-7C24,11.2263794,22.3753662,8.7472534,19.8547974,7.6190186z M6,14.5C6,14.2238159,6.223877,14,6.5,14S7,14.2238159,7,14.5C7,14.776123,6.776123,15,6.5,15S6,14.776123,6,14.5z M18.5,11c0.276123,0,0.5,0.2238159,0.5,0.5c0,0.276123-0.223877,0.5-0.5,0.5S18,11.776123,18,11.5C18,11.2238159,18.223877,11,18.5,11z M17.5,8C17.776123,8,18,8.2238159,18,8.5C18,8.776123,17.776123,9,17.5,9S17,8.776123,17,8.5C17,8.2238159,17.223877,8,17.5,8z M17.5,14c0.276123,0,0.5,0.2238159,0.5,0.5c0,0.276123-0.223877,0.5-0.5,0.5S17,14.776123,17,14.5C17,14.2238159,17.223877,14,17.5,14z M15.5,6C15.776123,6,16,6.2238159,16,6.5C16,6.776123,15.776123,7,15.5,7S15,6.776123,15,6.5C15,6.2238159,15.223877,6,15.5,6z M12,5c0.276123,0,0.5,0.2238159,0.5,0.5C12.5,5.776123,12.276123,6,12,6s-0.5-0.223877-0.5-0.5C11.5,5.2238159,11.723877,5,12,5z M10.875,10.3486328c0.1074219-0.0742188,0.1826172-0.1865234,0.2080078-0.3154297l0.4267578-2.1308594C11.5566406,7.6689453,11.7626953,7.5,12,7.5s0.4433594,0.1689453,0.4902344,0.4023438l0.4267578,2.1308594c0.0253906,0.1289063,0.1005859,0.2412109,0.2080078,0.3154297C13.6728516,10.7226563,14,11.3398438,14,12c0,1.1025391-0.8974609,2-2,2s-2-0.8974609-2-2C10,11.3398438,10.3271484,10.7226563,10.875,10.3486328z M8.5,6C8.776123,6,9,6.2238159,9,6.5C9,6.776123,8.776123,7,8.5,7S8,6.776123,8,6.5C8,6.2238159,8.223877,6,8.5,6z M6.5,8C6.776123,8,7,8.2238159,7,8.5C7,8.776123,6.776123,9,6.5,9S6,8.776123,6,8.5C6,8.2238159,6.223877,8,6.5,8z M5.5,11C5.776123,11,6,11.2238159,6,11.5C6,11.776123,5.776123,12,5.5,12S5,11.776123,5,11.5C5,11.2238159,5.223877,11,5.5,11z M5.7636719,17h12.4726563C16.7236328,18.8935547,14.453125,20,12,20S7.2763672,18.8935547,5.7636719,17z"/></g><g></g><g></g><g></g><g></g><g></g><g></g><g></g><g></g><g></g><g></g><g></g><g></g><g></g><g></g><g></g></svg>