<?xml version="1.0" encoding="iso-8859-1"?><svg version="1.1" id="Layer_1" xmlns="http://www.w3.org/2000/svg" xmlns:xlink="http://www.w3.org/1999/xlink" x="0px" y="0px" viewBox="0 0 24 24" enable-background="new 0 0 24 24" xml:space="preserve"><path fill="#303C42" d="M12,0C5.3833008,0,0,5.3833008,0,12s5.3833008,12,12,12s12-5.3833008,12-12S18.6166992,0,12,0z M7.5255127,14.1870728c0.4879761,0.9933472,1.2897339,1.7956543,2.2824097,2.284729C9.9284668,16.9105225,10,17.3599243,10,17.8144531c0,0.9768066-0.2835083,1.9208374-0.8118286,2.7407837c-2.6714478-0.874939-4.7880859-2.9833374-5.663269-5.800354C4.708374,14.0218506,6.1755981,13.8175049,7.5255127,14.1870728z M12,10c-0.6333008,0-1.2163086,0.2919922-1.5991211,0.8007813C10.3027344,10.9311523,10.152832,11,10.0009766,11c-0.1044922,0-0.2099609-0.0327148-0.300293-0.1005859c-0.2207031-0.1660156-0.2646484-0.4794922-0.0986328-0.7001953C10.1669922,9.4482422,11.0634766,9,12,9c0.2763672,0,0.5,0.2236328,0.5,0.5S12.2763672,10,12,10z M14.8066406,20.5464478C14.2822266,19.7287598,14,18.7880249,14,17.8144531c0-0.4559326,0.0715942-0.9053955,0.1924438-1.3428955c0.9920654-0.4888916,1.7932739-1.2905273,2.28125-2.28302c1.4019775-0.3806763,2.9653931-0.1239014,4.0834351,0.609314C19.6577759,17.5479736,17.4780273,19.661499,14.8066406,20.5464478z M17.8510742,9.7016602l-1.9365234-0.774231C14.998291,7.7630005,13.5931396,7,12,7c-1.5927734,0-2.9976196,0.7626953-3.9139404,1.9266968L6.1484375,9.7016602c-0.9165039,0.3666992-1.9467773,0.3935547-2.8735352,0.081543C4.2763672,5.828125,7.8803711,3,12,3c4.09375,0,7.6967773,2.8286133,8.7226563,6.7841797C19.7978516,10.0961914,18.7685547,10.0693359,17.8510742,9.7016602z"/><g></g><g></g><g></g><g></g><g></g><g></g><g></g><g></g><g></g><g></g><g></g><g></g><g></g><g></g><g></g></svg>