<?xml version="1.0" encoding="iso-8859-1"?><svg version="1.1" id="Layer_1" xmlns="http://www.w3.org/2000/svg" xmlns:xlink="http://www.w3.org/1999/xlink" x="0px" y="0px" viewBox="0 0 24 24" enable-background="new 0 0 24 24" xml:space="preserve"><path fill="#303C42" d="M23.5,9h-2C21.2236328,9,21,9.2236328,21,9.5v2h-5V11c0-0.1820068-0.0374146-0.3543091-0.0970459-0.5158691C15.9354248,10.4906006,15.9679565,10.5,16,10.5c0.2094727,0,0.4042969-0.1323242,0.4741211-0.3417969c0.0874023-0.262207-0.0541992-0.5454102-0.315918-0.6323242L15.5,9.3064575V8.8601685l0.3417969,0.1139526C15.8945313,8.9916992,15.9477539,9,16,9c0.2094727,0,0.4042969-0.1323242,0.4741211-0.3417969c0.0874023-0.262207-0.0541992-0.5454102-0.315918-0.6323242L15.5,7.8064575V7.3601685l0.3417969,0.1139526C15.8945313,7.4916992,15.9477539,7.5,16,7.5c0.2094727,0,0.4042969-0.1323242,0.4741211-0.3417969c0.0874023-0.262207-0.0541992-0.5454102-0.315918-0.6323242L15.5,6.3064575V5.8601685l0.3417969,0.1139526C15.8945313,5.9916992,15.9477539,6,16,6c0.2094727,0,0.4042969-0.1323242,0.4741211-0.3417969c0.0874023-0.262207-0.0541992-0.5454102-0.315918-0.6323242L15.5,4.8064575V4.3601685l0.3417969,0.1139526C15.8945313,4.4916992,15.9477539,4.5,16,4.5c0.2094727,0,0.4042969-0.1323242,0.4741211-0.3417969c0.0874023-0.262207-0.0541992-0.5454102-0.315918-0.6323242L15.5,3.3064575V2.6098633C15.8046265,2.335083,16,1.9415894,16,1.5C16,0.6728516,15.3271484,0,14.5,0S13,0.6728516,13,1.5c0,0.4415894,0.1953735,0.835083,0.5,1.1098633v0.0299683l-0.3417969-0.1139526c-0.2651367-0.0869141-0.5454102,0.0541992-0.6323242,0.315918c-0.0874023,0.262207,0.0541992,0.5454102,0.315918,0.6323242L13.5,3.6935425v0.4462891l-0.3417969-0.1139526c-0.2651367-0.0874023-0.5454102,0.0541992-0.6323242,0.315918c-0.0874023,0.262207,0.0541992,0.5454102,0.315918,0.6323242L13.5,5.1935425v0.4462891l-0.3417969-0.1139526c-0.2651367-0.0878906-0.5454102,0.0541992-0.6323242,0.315918c-0.0874023,0.262207,0.0541992,0.5454102,0.315918,0.6323242L13.5,6.6935425v0.4462891l-0.3417969-0.1139526c-0.2651367-0.0888672-0.5454102,0.0546875-0.6323242,0.315918c-0.0874023,0.262207,0.0541992,0.5454102,0.315918,0.6323242L13.5,8.1935425v0.4462891l-0.3417969-0.1139526c-0.2651367-0.0869141-0.5454102,0.0541992-0.6323242,0.315918c-0.0874023,0.262207,0.0541992,0.5454102,0.315918,0.6323242L13.5,9.6935425v0.1965942C13.1953735,10.164917,13,10.5584106,13,11v0.5h-2v-1c0-1.2072144-0.8602905-2.2171021-2-2.4494019V6.5C9,4.5703125,7.4296875,3,5.5,3h-2C1.5703125,3,0,4.5703125,0,6.5v14C0,22.4296875,1.5703125,24,3.5,24h2C7.4296875,24,9,22.4296875,9,20.5v-1.5505981c1.1397095-0.2322998,2-1.2421875,2-2.4494019v-2h10v2c0,0.2763672,0.2236328,0.5,0.5,0.5h2c0.2763672,0,0.5-0.2236328,0.5-0.5v-7C24,9.2236328,23.7763672,9,23.5,9z M2.8603516,19.8466797C2.762207,19.9487305,2.6313477,20,2.5,20c-0.1245117,0-0.2495117-0.0463867-0.3466797-0.1396484l-1-0.9614258c-0.1987305-0.1914063-0.2050781-0.5078125-0.0136719-0.7070313c0.1918945-0.1982422,0.5073242-0.2050781,0.7070313-0.0136719l1,0.9614258C3.0454102,19.3310547,3.0517578,19.6474609,2.8603516,19.8466797z M2.8603516,16.0004883C2.762207,16.1025391,2.6313477,16.1538086,2.5,16.1538086c-0.1245117,0-0.2495117-0.0463867-0.3466797-0.1396484l-1-0.9614258c-0.1987305-0.1914063-0.2050781-0.5078125-0.0136719-0.7070313c0.1918945-0.1987305,0.5073242-0.2050781,0.7070313-0.0136719l1,0.9614258C3.0454102,15.4848633,3.0517578,15.8012695,2.8603516,16.0004883z M2.8603516,12.1542969C2.762207,12.2563477,2.6313477,12.3076172,2.5,12.3076172c-0.1245117,0-0.2495117-0.0463867-0.3466797-0.1396484l-1-0.9614258c-0.1987305-0.1914063-0.2050781-0.5078125-0.0136719-0.7070313c0.1918945-0.1987305,0.5073242-0.2055664,0.7070313-0.0136719l1,0.9614258C3.0454102,11.6386719,3.0517578,11.9550781,2.8603516,12.1542969z M2.8603516,8.3081055C2.762207,8.4101563,2.6313477,8.4614258,2.5,8.4614258c-0.1245117,0-0.2495117-0.0463867-0.3466797-0.1396484l-1-0.9614258C0.9545898,7.1689453,0.9482422,6.8525391,1.1396484,6.6533203C1.331543,6.4541016,1.6469727,6.4477539,1.8466797,6.6396484l1,0.9614258C3.0454102,7.7924805,3.0517578,8.1088867,2.8603516,8.3081055z M7.8466797,18.8989258l-1,0.9614258C6.7495117,19.9536133,6.6245117,20,6.5,20c-0.1313477,0-0.262207-0.0512695-0.3603516-0.1533203c-0.1914063-0.1992188-0.1850586-0.515625,0.0136719-0.7070313l1-0.9614258c0.199707-0.1914063,0.5166016-0.1845703,0.7070313,0.0136719C8.0517578,18.3911133,8.0454102,18.7075195,7.8466797,18.8989258z M7.8466797,15.0527344l-1,0.9614258C6.7495117,16.1074219,6.6245117,16.1538086,6.5,16.1538086c-0.1313477,0-0.262207-0.0512695-0.3603516-0.1533203c-0.1914063-0.1992188-0.1850586-0.515625,0.0136719-0.7070313l1-0.9614258c0.199707-0.1914063,0.5166016-0.1850586,0.7070313,0.0136719C8.0517578,14.5449219,8.0454102,14.8613281,7.8466797,15.0527344z M7.8466797,11.206543l-1,0.9614258C6.7495117,12.2612305,6.6245117,12.3076172,6.5,12.3076172c-0.1313477,0-0.262207-0.0512695-0.3603516-0.1533203c-0.1914063-0.1992188-0.1850586-0.515625,0.0136719-0.7070313l1-0.9614258c0.199707-0.1918945,0.5166016-0.1850586,0.7070313,0.0136719C8.0517578,10.6987305,8.0454102,11.0151367,7.8466797,11.206543z M7.8466797,7.3603516l-1,0.9614258C6.7495117,8.4150391,6.6245117,8.4614258,6.5,8.4614258c-0.1313477,0-0.262207-0.0512695-0.3603516-0.1533203c-0.1914063-0.1992188-0.1850586-0.515625,0.0136719-0.7070313l1-0.9614258c0.199707-0.1918945,0.5166016-0.1855469,0.7070313,0.0136719C8.0517578,6.8525391,8.0454102,7.1689453,7.8466797,7.3603516z"/><g></g><g></g><g></g><g></g><g></g><g></g><g></g><g></g><g></g><g></g><g></g><g></g><g></g><g></g><g></g></svg>