<?xml version="1.0" encoding="iso-8859-1"?><svg version="1.1" id="Layer_1" xmlns="http://www.w3.org/2000/svg" xmlns:xlink="http://www.w3.org/1999/xlink" x="0px" y="0px" viewBox="0 0 24 24" enable-background="new 0 0 24 24" xml:space="preserve"><g><path fill="#303C42" d="M3.5,1H4v2.5C4,3.7763672,4.2236328,4,4.5,4S5,3.7763672,5,3.5v-3C5,0.2236328,4.7763672,0,4.5,0h-1C3.2236328,0,3,0.2236328,3,0.5S3.2236328,1,3.5,1z"/><path fill="#303C42" d="M4.75,20c-0.6894531,0-1.25,0.5605469-1.25,1.25c0,0.2763672,0.2236328,0.5,0.5,0.5s0.5-0.2236328,0.5-0.5c0-0.2753906,0.5-0.2753906,0.5,0v0.5429688l-1.3535156,1.3535156c-0.1430664,0.1425781-0.1860352,0.3583984-0.1083984,0.5449219C3.6152344,23.8779297,3.7978516,24,4,24h1.5C5.7763672,24,6,23.7763672,6,23.5S5.7763672,23,5.5,23H5.2070313l0.6464844-0.6464844C5.9472656,22.2597656,6,22.1328125,6,22v-0.75C6,20.5605469,5.4394531,20,4.75,20z"/><path fill="#303C42" d="M12,2.75c0-0.2763672-0.2236328-0.5-0.5-0.5S11,2.4736328,11,2.75C11,3.4394531,11.5605469,4,12.25,4s1.25-0.5605469,1.25-1.25c0-0.28125-0.0932617-0.5410156-0.2504883-0.75C13.4067383,1.7910156,13.5,1.53125,13.5,1.25C13.5,0.5605469,12.9394531,0,12.25,0S11,0.5605469,11,1.25c0,0.2763672,0.2236328,0.5,0.5,0.5S12,1.5263672,12,1.25c0-0.2753906,0.5-0.2753906,0.5,0c0,0.1376953-0.1123047,0.25-0.25,0.25c-0.2763672,0-0.5,0.2236328-0.5,0.5s0.2236328,0.5,0.5,0.5c0.1376953,0,0.25,0.1123047,0.25,0.25C12.5,3.0253906,12,3.0253906,12,2.75z"/><path fill="#303C42" d="M12.5,22v-0.5c0-0.2763672-0.2236328-0.5-0.5-0.5s-0.5,0.2236328-0.5,0.5V22H11v-1.5c0-0.2763672-0.2236328-0.5-0.5-0.5S10,20.2236328,10,20.5v2c0,0.2763672,0.2236328,0.5,0.5,0.5h1v0.5c0,0.2763672,0.2236328,0.5,0.5,0.5s0.5-0.2236328,0.5-0.5V23c0.2763672,0,0.5-0.2236328,0.5-0.5S12.7763672,22,12.5,22z"/><path fill="#303C42" d="M19.75,1.5H19.5V1h1C20.7763672,1,21,0.7763672,21,0.5S20.7763672,0,20.5,0H19c-0.2763672,0-0.5,0.2236328-0.5,0.5V2c0,0.2763672,0.2236328,0.5,0.5,0.5h0.75C19.8876953,2.5,20,2.6123047,20,2.75S19.8876953,3,19.75,3H19c-0.2763672,0-0.5,0.2236328-0.5,0.5S18.7236328,4,19,4h0.75C20.4394531,4,21,3.4394531,21,2.75S20.4394531,1.5,19.75,1.5z"/><path fill="#303C42" d="M21,21.5c0-0.8271484-0.6728516-1.5-1.5-1.5h-1c-0.2763672,0-0.5,0.2236328-0.5,0.5v3c0,0.2763672,0.2236328,0.5,0.5,0.5s0.5-0.2236328,0.5-0.5V23h0.2929688l0.8535156,0.8535156C20.2441406,23.9511719,20.3720703,24,20.5,24s0.2558594-0.0488281,0.3535156-0.1464844c0.1953125-0.1953125,0.1953125-0.5117188,0-0.7070313l-0.4538574-0.4538574C20.7619629,22.4185181,21,21.9882813,21,21.5z M19,21h0.5c0.2758789,0,0.5,0.2246094,0.5,0.5S19.7758789,22,19.5,22H19V21z"/><path fill="#303C42" d="M20,16.0921021V7.9078979C20.5807495,7.7008057,21,7.151001,21,6.5C21,5.6728516,20.3271484,5,19.5,5S18,5.6728516,18,6.5c0,0.651001,0.4192505,1.2008057,1,1.4078979V11.5h-4.0505371C14.7374268,10.2475586,13.7524414,9.2625732,12.5,9.0505371V7.9078979c0.5807495-0.2070923,1-0.756897,1-1.4078979C13.5,5.6728516,12.8271484,5,12,5s-1.5,0.6728516-1.5,1.5c0,0.651001,0.4192505,1.2008057,1,1.4078979v1.1426392C10.2475586,9.2625732,9.2625732,10.2475586,9.0505371,11.5H5V7.9078979C5.5807495,7.7008057,6,7.151001,6,6.5C6,5.6728516,5.3271484,5,4.5,5S3,5.6728516,3,6.5c0,0.651001,0.4192505,1.2008057,1,1.4078979v8.1842041C3.4192505,16.2991943,3,16.848999,3,17.5C3,18.3271484,3.6728516,19,4.5,19S6,18.3271484,6,17.5c0-0.651001-0.4192505-1.2008057-1-1.4078979V12.5h4.0505371C9.2625732,13.7524414,10.2475586,14.7374268,11.5,14.9494629v1.1426392c-0.5807495,0.2070923-1,0.756897-1,1.4078979c0,0.8271484,0.6728516,1.5,1.5,1.5s1.5-0.6728516,1.5-1.5c0-0.651001-0.4192505-1.2008057-1-1.4078979v-1.1426392c1.2524414-0.2120361,2.2374268-1.1970215,2.4494629-2.4494629H19v3.5921021C18.4192505,16.2991943,18,16.848999,18,17.5c0,0.8271484,0.6728516,1.5,1.5,1.5s1.5-0.6728516,1.5-1.5C21,16.848999,20.5807495,16.2991943,20,16.0921021z M11,11c-0.276123,0-0.5-0.223877-0.5-0.5c0-0.2761841,0.223877-0.5,0.5-0.5s0.5,0.2238159,0.5,0.5C11.5,10.776123,11.276123,11,11,11z"/></g><g></g><g></g><g></g><g></g><g></g><g></g><g></g><g></g><g></g><g></g><g></g><g></g><g></g><g></g><g></g></svg>