<svg xmlns="http://www.w3.org/2000/svg" viewBox="0 0 436.56 141.09"><title>Asset 13</title><g id="Layer_2" data-name="Layer 2"><g id="Layer_1-2" data-name="Layer 1"><path d="M114.79,11.45c-1.12,0-1.67-.4-1.67-1.2q0-3-5.13-3t-5.2,4.2V43.17c0,3.14,1.73,4.72,5.2,4.72s5.11-1.19,5.09-3.56c0-.77.65-1.16,1.88-1.16h2.43c1.43,0,2.14.36,2.12,1.09q0,10.67-11.52,10.67-11.89,0-11.9-11.76V11.45Q96.09.34,108,.21q11.55.13,11.55,10c0,.8-.63,1.2-1.88,1.2Z"/><path d="M133.11.17h4.23a2.78,2.78,0,0,1,1.54,2.09l8,49.86c0,1.64-.63,2.56-1.91,2.74h-3.55c-1.19-.53-1.78-1.85-1.78-4q-.21-4.44-2.29-4.64l-3.42,0c-1.5.07-2.36,1.46-2.56,4.17l-.34,2.9a1.82,1.82,0,0,1-1.85,1.51h-3.73A2.55,2.55,0,0,1,124,52.4l7.79-50A3,3,0,0,1,133.11.17Zm0,34.18L132.7,37c-.1,1.77.21,2.7.92,2.77h3.31c.8,0,1.13-.89,1-2.81l-.85-6.87c-.18-1.34-.66-2.07-1.43-2.19-1.08,0-1.69.72-1.85,2.09Z"/><path d="M162.46.27q12.16,0,12.17,10.12V20.64q0,5.61-6.43,8c-.2.11-.2.5,0,1.16l6.43,22.63a3,3,0,0,1,.1.75c0,1.14-.72,1.71-2.15,1.71H170.7c-1.32,0-2.16-.82-2.5-2.46L163.14,31A2.29,2.29,0,0,0,161.61,29h-1.85c-1.37,0-2,.91-2,2.67V52.4q0,2.46-2.22,2.46h-1.78q-2.19,0-2.19-2.46V2.6c0-1.55.58-2.33,1.75-2.33Zm-4.75,20.48c0,2.07.64,3.11,1.91,3.11h4.24a4.16,4.16,0,0,0,4.34-3.39V10.39a3.73,3.73,0,0,0-1.38-3.13A6,6,0,0,0,163,6.19h-2.32c-2,0-3,.73-3,2.18Z"/><path d="M184.33,0h13.12c1.26,0,1.88.76,1.88,2.29V5.47a1.66,1.66,0,0,1-1.88,1.88h-1.91c-1.09,0-1.64.51-1.64,1.54V44.33c0,2.17.4,3.25,1.2,3.25h2.35c1.26,0,1.88.69,1.88,2V53a1.65,1.65,0,0,1-1.88,1.85H184.33c-1.3,0-2-.62-2-1.85V49.63c0-1.37.65-2.05,2-2.05h1.74a1.25,1.25,0,0,0,1.4-1.44V8.89c0-1-.41-1.54-1.23-1.54h-1.91a1.69,1.69,0,0,1-2-1.88V2.29C182.38.76,183,0,184.33,0Z"/><path d="M208.35,1.4h10a29.25,29.25,0,0,1,3.83.41q4.37,1.54,6,4a9.69,9.69,0,0,1,1.79,4l0,11.35A8.74,8.74,0,0,1,227.6,27v1.5a9.35,9.35,0,0,1,1.64,3,17.33,17.33,0,0,1,.65,4.1V45.77q-.24,10.14-6.6,10.18h-14.9c-1.37,0-2-.89-2-2.66l0-49.94A1.91,1.91,0,0,1,208.35,1.4Zm4.82,32.54V46.83c0,1.57.49,2.35,1.47,2.35h3.66c3,0,4.48-1.11,4.48-3.35V34.21c0-2.12-1.48-3.17-4.45-3.17h-3.69C213.71,31.06,213.22,32,213.17,33.94Zm0-22.39v9.91c-.07,2,.39,3.05,1.4,3.05h3.72q4.48,0,4.45-5.2V14c0-3.65-1.5-5.47-4.48-5.47h-3.66C213.66,8.51,213.18,9.52,213.21,11.55Z"/><path d="M235.93,1.4h9.95a29,29,0,0,1,3.82.41q4.38,1.54,6,4a9.74,9.74,0,0,1,1.8,4l0,11.35A8.69,8.69,0,0,1,255.17,27v1.5a9.16,9.16,0,0,1,1.64,3,16.36,16.36,0,0,1,.65,4.1V45.77q-.24,10.14-6.59,10.18H236c-1.36,0-2.05-.89-2.05-2.66l0-49.94A1.91,1.91,0,0,1,235.93,1.4Zm4.82,32.54V46.83c0,1.57.49,2.35,1.47,2.35h3.66c3,0,4.47-1.11,4.47-3.35V34.21c0-2.12-1.48-3.17-4.44-3.17h-3.69C241.28,31.06,240.8,32,240.75,33.94Zm0-22.39v9.91c-.06,2,.4,3.05,1.41,3.05h3.72q4.49,0,4.44-5.2V14q0-5.48-4.47-5.47h-3.66C241.24,8.51,240.76,9.52,240.78,11.55Z"/><path d="M263.34,1.54h19.41c1.55.07,2.32.8,2.32,2.19V5.57c0,1.76-.75,2.64-2.25,2.67H269.63q-1.28,0-1.23,1.47l0,12.85c0,1,.67,1.54,2,1.54h6.42c1.19,0,1.78.77,1.78,2.32v2.46c-.09,1.28-.68,1.92-1.78,1.92H270c-1.1,0-1.64.7-1.64,2.18V47.44c0,1.12.45,1.68,1.36,1.68h13c1.5.18,2.22.94,2.15,2.29v2.22c0,1.55-.72,2.32-2.22,2.32H264.23c-1.6,0-2.4-.78-2.4-2.29V3.32C261.83,2.13,262.33,1.54,263.34,1.54Z"/><path d="M298.57.17h4.24a2.81,2.81,0,0,1,1.54,2.09l8,49.86c0,1.64-.64,2.56-1.91,2.74h-3.56c-1.18-.53-1.78-1.85-1.78-4-.13-3-.9-4.51-2.29-4.64l-3.41,0c-1.51.07-2.36,1.46-2.57,4.17l-.34,2.9a1.81,1.81,0,0,1-1.85,1.51H291a2.54,2.54,0,0,1-1.54-2.46l7.79-50A3,3,0,0,1,298.57.17Zm0,34.18L298.16,37c-.09,1.77.22,2.7.92,2.77h3.32c.8,0,1.13-.89,1-2.81l-.85-6.87q-.29-2-1.44-2.19c-1.07,0-1.69.72-1.85,2.09Z"/><path d="M321.23.21a2.45,2.45,0,0,1,2.42,2.08l7.28,23.65c.53,1.46,1.07,2.24,1.64,2.33s.88-.63.86-1.95v-24c0-1.39.65-2.08,1.88-2.08h3c1,0,1.53.69,1.53,2.08V53c0,1.23-.5,1.85-1.5,1.85h-2.77a2.59,2.59,0,0,1-2.6-1.57L325.6,28.13c-.25-.82-.61-1.29-1.09-1.4s-.83,1.06-.86,3V53c0,1.23-.76,1.85-2.29,1.85h-2.08c-1.53,0-2.29-.62-2.29-1.85V2.29c0-1.39.74-2.08,2.22-2.08Z"/><path d="M9.16,85.17H13.4a2.81,2.81,0,0,1,1.54,2.09l8,49.86c0,1.64-.64,2.56-1.92,2.74H17.5c-1.19-.53-1.78-1.85-1.78-4-.13-3-.9-4.51-2.29-4.64l-3.42,0q-2.25.1-2.56,4.17l-.34,2.9a1.81,1.81,0,0,1-1.85,1.51H1.54A2.54,2.54,0,0,1,0,137.4l7.79-50A3,3,0,0,1,9.16,85.17Zm0,34.18L8.75,122c-.09,1.77.22,2.7.92,2.77H13c.8,0,1.13-.89,1-2.81l-.85-6.87q-.29-2-1.44-2.19c-1.07,0-1.69.72-1.85,2.09Z"/><path d="M30,85.21h1.61c1.71,0,2.57.88,2.59,2.66v40.2c0,3.82,1.67,5.74,5.06,5.74s5.1-1.92,5.1-5.74l0-40.2c0-1.78.63-2.66,2-2.66H48.5c1.29,0,1.94.88,1.94,2.66v40.2q0,11.79-11.21,11.79-11.65,0-11.65-11.79V87.87C27.58,86.09,28.38,85.21,30,85.21Z"/><path d="M56.49,85.31H78c.78,0,1.16.42,1.16,1.26v4.68c0,.78-.28,1.17-.85,1.17H71.94c-.87,0-1.29.46-1.27,1.4l0,44.94c0,.73-.33,1.1-1,1.1H64.86a1,1,0,0,1-1.09-1.1l0-44.94c0-.94-.43-1.4-1.29-1.4H56.21c-.7,0-1-.42-1-1.27l0-4.61C55.16,85.72,55.6,85.31,56.49,85.31Z"/><path d="M94.22,85.21q11.23,0,11.24,9.7v31.72q0,13.23-11.24,13.23-11.62,0-11.62-12.72V94.91Q82.6,85.21,94.22,85.21ZM88.85,97.48v30.59q0,5.4,5.3,5.43t5.19-5.43V97.54c0-4.19-1.7-6.29-5.12-6.29Q88.85,91.25,88.85,97.48Z"/><path d="M118.89,113.88c-1.44,0-2.15,1-2.15,2.84V137.5a2.11,2.11,0,0,1-2.4,2.36h-2q-2.19,0-2.19-2.46V87.6c0-1.55.58-2.33,1.75-2.33h9.19Q133,85.27,133,95v9.71q0,9.16-9.67,9.16Zm-2.15-9.26c0,2.07.63,3.11,1.91,3.11h3.86q4.3,0,4.34-3.38V95.77a3.73,3.73,0,0,0-1.38-3.13,6,6,0,0,0-3.78-1.08h-2q-3,0-3,2.19Z"/><path d="M146.91,85.17h4.24a2.78,2.78,0,0,1,1.54,2.09l8,49.86c0,1.64-.64,2.56-1.91,2.74h-3.56c-1.18-.53-1.78-1.85-1.78-4-.13-3-.9-4.51-2.29-4.64l-3.41,0c-1.51.07-2.36,1.46-2.57,4.17l-.34,2.9a1.81,1.81,0,0,1-1.85,1.51h-3.72a2.54,2.54,0,0,1-1.54-2.46l7.79-50A3,3,0,0,1,146.91,85.17Zm0,34.18L146.5,122c-.09,1.77.22,2.7.92,2.77h3.32c.8,0,1.13-.89,1-2.81l-.85-6.87c-.19-1.34-.66-2.07-1.44-2.19-1.07,0-1.69.72-1.85,2.09Z"/><path d="M176.27,85.27q12.16,0,12.16,10.12v10.25q0,5.61-6.42,8c-.21.11-.21.5,0,1.16l6.42,22.63a3,3,0,0,1,.11.75q0,1.71-2.16,1.71H184.5q-2,0-2.49-2.46L177,116a2.32,2.32,0,0,0-1.54-2.09h-1.84c-1.37,0-2,.91-2,2.67V137.4c0,1.64-.75,2.46-2.23,2.46h-1.77q-2.19,0-2.19-2.46V87.6c0-1.55.58-2.33,1.74-2.33Zm-4.75,20.48c0,2.07.63,3.11,1.91,3.11h4.24a4.17,4.17,0,0,0,4.34-3.39V95.39a3.71,3.71,0,0,0-1.39-3.13,6,6,0,0,0-3.77-1.07h-2.33c-2,0-3,.73-3,2.18Z"/><path d="M194.24,85.31h21.53c.78,0,1.16.42,1.16,1.26v4.68c0,.78-.28,1.17-.85,1.17h-6.39c-.87,0-1.29.46-1.27,1.4l0,44.94c0,.73-.33,1.1-1,1.1h-4.79a1,1,0,0,1-1.09-1.1l0-44.94c0-.94-.43-1.4-1.29-1.4H194c-.71,0-1.05-.42-1-1.27l0-4.61C192.91,85.72,193.35,85.31,194.24,85.31Z"/><path d="M231.76,85.21q11.18,0,11.18,11.51c0,1.92-.7,2.87-2.09,2.87H238.5c-1.39,0-2.09-1-2.09-2.87q0-5.16-4.72-5.16t-4.58,5.16q0,4.48,2.16,6.36l7.18,8.51q5.3,5,6.49,16.48,0,11.79-11.21,11.79-11.62,0-11.62-10c0-1.18,1.18-1.77,3.55-1.77s3.48.43,3.45,1.3q0,4.44,4.62,4.44c3.14,0,4.72-1.37,4.72-4.1l0-1.64a27.21,27.21,0,0,0-9.26-16.58L223,106.64q-2.91-3.31-2.91-9.92Q220.07,85.2,231.76,85.21Z"/><path d="M277.35,86.4h2.8c1.53,0,2.29.86,2.29,2.56v18.09a2.27,2.27,0,0,0,1.61,2.53h4.88a2.13,2.13,0,0,0,2.12-2.47V88.55a2.2,2.2,0,0,1,2.43-2.15h3.11c1.5,0,2.32.86,2.46,2.56v49.77a2.06,2.06,0,0,1-2.25,2.36h-3.25c-1.62-.05-2.46-.67-2.53-1.88V118.77q0-2.33-1.95-2.7H284.7a2.22,2.22,0,0,0-2.26,2.49v20.55c0,1.3-.64,2-1.78,2H277a1.93,1.93,0,0,1-2.05-2.12V89.14C274.92,87.4,275.73,86.49,277.35,86.4Z"/><path d="M305.57,85.21h1.61c1.71,0,2.58.88,2.6,2.66v40.2c0,3.82,1.66,5.74,5.06,5.74s5.09-1.92,5.09-5.74l0-40.2c0-1.78.63-2.66,2-2.66h2.19c1.3,0,1.95.88,1.95,2.66v40.2q0,11.79-11.21,11.79-11.65,0-11.66-11.79V87.87C303.18,86.09,304,85.21,305.57,85.21Z"/><path d="M335,85.21a2.44,2.44,0,0,1,2.42,2.08l7.29,23.65c.52,1.46,1.07,2.24,1.64,2.33s.87-.63.85-2v-24c0-1.39.65-2.08,1.88-2.08h3c1,0,1.54.69,1.54,2.08V138c0,1.23-.51,1.85-1.51,1.85h-2.77a2.57,2.57,0,0,1-2.59-1.57l-7.39-25.16c-.25-.82-.61-1.29-1.09-1.4s-.83,1.06-.86,3V138c0,1.23-.76,1.85-2.28,1.85h-2.09c-1.53,0-2.29-.62-2.29-1.85V87.29c0-1.39.74-2.08,2.22-2.08Z"/><path d="M359.67,85.31H381.2q1.17,0,1.17,1.26v4.68c0,.78-.29,1.17-.86,1.17h-6.39c-.87,0-1.29.46-1.27,1.4l0,44.94c0,.73-.33,1.1-1,1.1H368a1,1,0,0,1-1.09-1.1l0-44.94c0-.94-.44-1.4-1.3-1.4H359.4c-.71,0-1-.42-1-1.27l0-4.61C358.34,85.72,358.78,85.31,359.67,85.31Z"/><path d="M387.28,86.54H406.7c1.54.07,2.32.8,2.32,2.19v1.84c0,1.76-.75,2.64-2.26,2.67H393.57q-1.26,0-1.23,1.47l0,12.85c0,1,.68,1.54,2,1.54h6.43c1.18,0,1.77.77,1.77,2.32v2.46q-.13,1.92-1.77,1.92H394c-1.09,0-1.64.7-1.64,2.18v14.46c0,1.12.46,1.68,1.37,1.68h13c1.5.18,2.22.94,2.15,2.29v2.22a2,2,0,0,1-2.22,2.32H388.17c-1.6,0-2.39-.78-2.39-2.29V88.32C385.78,87.13,386.28,86.54,387.28,86.54Z"/><path d="M424.29,85.27q12.16,0,12.17,10.12v10.25q0,5.61-6.42,8c-.21.11-.21.5,0,1.16l6.42,22.63a3,3,0,0,1,.1.75c0,1.14-.71,1.71-2.15,1.71h-1.88q-2,0-2.49-2.46L425,116a2.32,2.32,0,0,0-1.54-2.09h-1.85c-1.36,0-2,.91-2,2.67V137.4q0,2.46-2.22,2.46h-1.78c-1.46,0-2.18-.82-2.18-2.46V87.6c0-1.55.58-2.33,1.74-2.33Zm-4.75,20.48c0,2.07.64,3.11,1.92,3.11h4.23a4.17,4.17,0,0,0,4.35-3.39V95.39a3.74,3.74,0,0,0-1.39-3.13,6,6,0,0,0-3.78-1.07h-2.32c-2,0-3,.73-3,2.18Z"/></g></g></svg>