<?xml version="1.0" encoding="iso-8859-1"?><svg version="1.1" id="Layer_1" xmlns="http://www.w3.org/2000/svg" xmlns:xlink="http://www.w3.org/1999/xlink" x="0px" y="0px" viewBox="0 0 24 24" enable-background="new 0 0 24 24" xml:space="preserve"> <g> <path fill="#303C42" d="M23.8764648,8.1708984C23.7270508,8.0004883,20.1333008,4,12,4S0.2729492,8.0004883,0.1235352,8.1708984C0.0131836,8.296875-0.0263672,8.4697266,0.0175781,8.6313477l3,11c0.0439453,0.1606445,0.1650391,0.2880859,0.3227539,0.3413086c0.1557617,0.0541992,0.331543,0.0244141,0.4638672-0.0756836C3.8291016,19.8779297,6.3632813,18,12,18c0.4821167,0,0.9332275,0.0179443,1.3703613,0.0430908L12.9333496,19h-0.1789551c-0.2763672,0-0.5,0.2236328-0.5,0.5s0.2236328,0.5,0.5,0.5h2c0.2763672,0,0.5-0.2236328,0.5-0.5s-0.2236328-0.5-0.5-0.5h-0.72229l0.397644-0.8706665c3.9353638,0.4207153,5.7450562,1.7515869,5.7660522,1.7676392c0.0883789,0.0668945,0.1958008,0.1020508,0.3041992,0.1020508c0.0537109,0,0.1079102-0.0083008,0.159668-0.0263672c0.1577148-0.0532227,0.2788086-0.1806641,0.3227539-0.3413086l3-11C24.0263672,8.4697266,23.9868164,8.296875,23.8764648,8.1708984z M19.5429688,17.3095703c-1.0161133-0.4187012-2.4212036-0.8431396-4.2404175-1.0911865l1.7731323-3.8824463h0.8601685l-0.9563599,3.5073242c-0.0727539,0.2661133,0.0844727,0.5410156,0.3510742,0.6137695c0.0439453,0.012207,0.0878906,0.0175781,0.1318359,0.0175781c0.2197266,0,0.4213867-0.1459961,0.4819336-0.3686523l2.0380859-7.4746094c0.0727539-0.2661133-0.0844727-0.5410156-0.3510742-0.6137695c-0.2651367-0.0742188-0.5410156,0.0839844-0.6137695,0.3510742l-0.809082,2.9672852h-1.4541016c-0.1958008,0-0.3735352,0.1142578-0.4545898,0.2924805l-2.0424805,4.4724121C13.557251,16.0385742,12.8095703,16,12,16c-3.5141602,0-5.9799805,0.6655273-7.5424805,1.3095703L2.1875,8.9868164C3.4682617,7.9506836,6.5986328,6,12,6c5.4467773,0,8.5507813,1.9467773,9.8144531,2.9804688L19.5429688,17.3095703z"/> <path fill="#303C42" d="M5.7236328,8.5527344c-0.246582-0.1230469-0.546875-0.0239258-0.6708984,0.2236328l-1,2c-0.1235352,0.2470703-0.0234375,0.5473633,0.2236328,0.6708984C4.3481445,11.4829102,4.4243164,11.5,4.4995117,11.5c0.1835938,0,0.3598633-0.1010742,0.4477539-0.2763672l1-2C6.0708008,8.9765625,5.9707031,8.6762695,5.7236328,8.5527344z"/> <path fill="#303C42" d="M7.7236328,8.5527344c-0.246582-0.1230469-0.5463867-0.0239258-0.6708984,0.2236328l-2,4c-0.1235352,0.2470703-0.0234375,0.5473633,0.2236328,0.6708984C5.3481445,13.4829102,5.4243164,13.5,5.4995117,13.5c0.1835938,0,0.3598633-0.1010742,0.4477539-0.2763672l2-4C8.0708008,8.9765625,7.9707031,8.6762695,7.7236328,8.5527344z"/> </g> <g> </g> <g> </g> <g> </g> <g> </g> <g> </g> <g> </g> <g> </g> <g> </g> <g> </g> <g> </g> <g></g> <g> </g> <g> </g> <g> </g> <g> </g></svg>